<?xml version="1.0" encoding="UTF-8"?>
<svg version="1.1" xmlns="http://www.w3.org/2000/svg" width="420" height="594">
<path d="M0 0 C0.66 0 1.32 0 2 0 C8.46957815 32.23236256 4.22954411 63.60183485 -13 92 C-15.75517549 95.92403783 -18.74029836 99.48782577 -22 103 C-22.69738281 103.76570313 -23.39476562 104.53140625 -24.11328125 105.3203125 C-30.14992024 111.65492087 -36.92287596 116.90431709 -44 122 C-44.57588867 122.42506836 -45.15177734 122.85013672 -45.74511719 123.28808594 C-55.43553752 130.36033669 -65.86203578 135.50926016 -76.75 140.4375 C-77.4069989 140.73668335 -78.0639978 141.0358667 -78.74090576 141.34411621 C-86.42243661 144.82136029 -94.09537709 147.7907995 -102.20410156 150.15698242 C-105.618325 151.18643697 -108.75066113 152.47123583 -112 153.9375 C-116.41960227 155.89363743 -120.8375669 157.71127453 -125.375 159.375 C-138.6897893 164.43882631 -153.64911772 171.26275788 -164.76953125 180.234375 C-167 182 -167 182 -169 182 C-169 182.66 -169 183.32 -169 184 C-173.47058824 188 -173.47058824 188 -176 188 C-176.33 188.99 -176.66 189.98 -177 191 C-177.66 191 -178.32 191 -179 191 C-179.33 191.99 -179.66 192.98 -180 194 C-180.86625 194.804375 -180.86625 194.804375 -181.75 195.625 C-193.7726278 208.31555157 -196.45948908 228.50720382 -199 245 C-203.10175866 243.14580269 -205.49684551 240.42760442 -208.3125 237 C-209.04098145 236.12323608 -209.04098145 236.12323608 -209.78417969 235.22875977 C-213.80769158 230.33571483 -217.56535489 225.32703453 -221 220 C-221.57234375 219.12472656 -222.1446875 218.24945313 -222.734375 217.34765625 C-236.9934149 194.35022243 -240.15373374 168.39254173 -235 142 C-229.45492898 122.12627908 -217.13642904 105.45950836 -201 93 C-199.91339005 92.09637357 -198.83017057 91.18865787 -197.75 90.27734375 C-177.05976862 73.02903871 -152.88423222 67.98664252 -126.88598633 63.55273438 C-119.61513524 62.30586253 -112.38449925 60.91247907 -105.15795898 59.43212891 C-99.76568618 58.33339163 -94.36312348 57.35582241 -88.9375 56.4375 C-82.49494459 55.32985074 -76.24941106 53.92143232 -70 52 C-69.14277344 51.76023438 -68.28554688 51.52046875 -67.40234375 51.2734375 C-50.61133486 46.2196036 -32.67775131 37.82896618 -20.25 25.20703125 C-18 23 -18 23 -16 23 C-15.6596875 22.2265625 -15.6596875 22.2265625 -15.3125 21.4375 C-13.21139246 17.53544314 -10.72757488 13.67243951 -7.53125 10.578125 C-5.02685026 7.99705996 -3.30572018 4.89996578 -1.40234375 1.86328125 C-0.70818359 0.94095703 -0.70818359 0.94095703 0 0 Z " fill="#FD3232" transform="translate(347,144)"/>
<path d="M0 0 C3.64243178 1.21414393 4.12273801 2.60423069 5.8034668 5.91162109 C6.13644775 6.60078613 6.46942871 7.28995117 6.8125 8 C7.1628833 8.71623535 7.5132666 9.4324707 7.87426758 10.17041016 C12.97084931 20.84686015 16.53352569 32.02847993 19.8125 43.375 C20.01963623 44.07544434 20.22677246 44.77588867 20.44018555 45.49755859 C27.21360954 69.91385394 23.74083015 98.39384845 13 121 C12.08096989 123.01975959 11.16435378 125.04061912 10.25 127.0625 C9.50037868 128.70850584 8.75051581 130.35440182 8 132 C7.34 132 6.68 132 6 132 C5.75121094 132.71027344 5.50242187 133.42054688 5.24609375 134.15234375 C3.85955252 137.32095991 2.13061563 139.79345877 0.0625 142.5625 C-0.62714844 143.49191406 -1.31679688 144.42132812 -2.02734375 145.37890625 C-3.00380859 146.67634766 -3.00380859 146.67634766 -4 148 C-4.80630859 149.15822266 -4.80630859 149.15822266 -5.62890625 150.33984375 C-6.30759766 151.16162109 -6.30759766 151.16162109 -7 152 C-7.66 152 -8.32 152 -9 152 C-9.268125 152.598125 -9.53625 153.19625 -9.8125 153.8125 C-10.99917406 155.99847854 -12.09599113 157.41332594 -14 159 C-14.66 159 -15.32 159 -16 159 C-16.33 159.99 -16.66 160.98 -17 162 C-26.97026786 171.35698249 -37.45131831 176.86967827 -50 182 C-50.88042969 182.37253906 -51.76085937 182.74507812 -52.66796875 183.12890625 C-55.09536283 184.13867051 -57.53524369 185.08528454 -60 186 C-60.91265625 186.33902344 -61.8253125 186.67804688 -62.765625 187.02734375 C-97.51813273 198.83428548 -135.93651909 193.71702431 -169.0625 179.6484375 C-172.07330665 178.37211729 -175.10884559 177.22885964 -178.1875 176.125 C-184.99320538 173.44007335 -190.96059241 169.06443544 -197 165 C-197.57943359 164.63648438 -198.15886719 164.27296875 -198.75585938 163.8984375 C-200.20333254 162.98210044 -201.60653066 161.99654171 -203 161 C-203 160.34 -203 159.68 -203 159 C-203.5775 158.731875 -204.155 158.46375 -204.75 158.1875 C-207.05550043 156.97070811 -209.02056192 155.69666121 -211 154 C-211 153.34 -211 152.68 -211 152 C-211.54269531 151.79117188 -212.08539063 151.58234375 -212.64453125 151.3671875 C-215.88995962 149.48343969 -218.19515148 146.87991101 -220.6875 144.125 C-221.21134277 143.55072266 -221.73518555 142.97644531 -222.27490234 142.38476562 C-235.17192813 128.0468849 -235.17192813 128.0468849 -238 120 C-230.80696424 121.11044561 -224.26622974 123.26118455 -217.4453125 125.765625 C-208.42083338 128.99888509 -199.45828406 130.60894468 -190 132 C-188.23233276 132.26478149 -188.23233276 132.26478149 -186.42895508 132.53491211 C-159.35328173 136.52181546 -131.65903588 138.96137255 -105 131 C-103.37832793 130.74836123 -101.75315944 130.51802177 -100.125 130.3125 C-72.75424491 125.49343996 -46.70242734 104.11315554 -30.203125 82.6640625 C-19.64633508 67.13050019 -12.58441196 48.83228699 -7 31 C-6.68675781 30.01515625 -6.37351562 29.0303125 -6.05078125 28.015625 C-3.36403152 18.86077405 -1.80066654 9.36098992 0 0 Z " fill="#FD3232" transform="translate(269,384)"/>
<path d="M0 0 C1.29744141 0.01353516 1.29744141 0.01353516 2.62109375 0.02734375 C3.26175781 0.03894531 3.90242187 0.05054687 4.5625 0.0625 C3.12354816 3.40027488 1.32555719 5.45872174 -1.3125 7.9375 C-4.55415933 11.09154691 -7.01793264 14.22456557 -9.4375 18.0625 C-12.56217112 21.98836884 -15.89404661 25.51904661 -19.4375 29.0625 C-22.38721117 32.33841453 -25.3122733 35.63611773 -28.04296875 39.09765625 C-28.54441406 39.72542969 -29.04585938 40.35320313 -29.5625 41 C-30.21605469 41.84884766 -30.21605469 41.84884766 -30.8828125 42.71484375 C-34.41232797 45.77434836 -39.32178476 45.17366171 -43.75 45.125 C-45.35294922 45.11146484 -45.35294922 45.11146484 -46.98828125 45.09765625 C-47.79652344 45.08605469 -48.60476562 45.07445312 -49.4375 45.0625 C-47.94215495 40.07178588 -44.97124989 37.08793031 -41.4375 33.4375 C-40.35237379 32.30118859 -39.26897358 31.16322583 -38.1875 30.0234375 C-37.70796875 29.52634277 -37.2284375 29.02924805 -36.734375 28.51708984 C-35.21775872 26.88420771 -35.21775872 26.88420771 -33.4375 24.0625 C-32.7775 24.0625 -32.1175 24.0625 -31.4375 24.0625 C-31.06625 23.19625 -31.06625 23.19625 -30.6875 22.3125 C-29.27022743 19.76140938 -27.52567713 18.08276893 -25.4375 16.0625 C-35.34466766 16.77055306 -45.23428893 17.63071716 -55.11645508 18.62719727 C-56.80781212 18.79427536 -58.49991501 18.95394783 -60.19262695 19.10668945 C-62.66566663 19.33077983 -65.13526918 19.57875884 -67.60546875 19.83203125 C-68.74280708 19.92760063 -68.74280708 19.92760063 -69.90312195 20.02510071 C-72.25642531 20.23938158 -72.25642531 20.23938158 -75.4375 21.0625 C-76.90509347 22.87778553 -76.90509347 22.87778553 -77.4375 25.0625 C-78.0975 26.0525 -78.7575 27.0425 -79.4375 28.0625 C-80.0975 28.0625 -80.7575 28.0625 -81.4375 28.0625 C-81.71295654 28.65562988 -81.98841309 29.24875977 -82.2722168 29.85986328 C-83.38044899 31.95466127 -84.52943228 33.52633004 -86.08203125 35.3046875 C-86.59443359 35.89636719 -87.10683594 36.48804688 -87.63476562 37.09765625 C-88.16779297 37.70480469 -88.70082031 38.31195313 -89.25 38.9375 C-90.29856288 40.14289367 -91.34674364 41.34861986 -92.39453125 42.5546875 C-92.9045166 43.13702148 -93.41450195 43.71935547 -93.93994141 44.31933594 C-95.40029163 46.01918931 -96.79934717 47.75810146 -98.19921875 49.5078125 C-99.30716797 50.77238281 -99.30716797 50.77238281 -100.4375 52.0625 C-101.0975 52.0625 -101.7575 52.0625 -102.4375 52.0625 C-103.0975 53.3825 -103.7575 54.7025 -104.4375 56.0625 C-104.1075 56.3925 -103.7775 56.7225 -103.4375 57.0625 C-101.60081589 56.94868744 -101.60081589 56.94868744 -99.4140625 56.57421875 C-98.5681958 56.44595703 -97.7223291 56.31769531 -96.85083008 56.18554688 C-95.93068115 56.04181641 -95.01053223 55.89808594 -94.0625 55.75 C-86.37703701 54.5997504 -78.70569485 53.60239561 -70.97290039 52.8371582 C-66.27139743 52.3685134 -61.58068331 51.84648622 -56.890625 51.2734375 C-55.75004639 51.13550781 -54.60946777 50.99757812 -53.43432617 50.85546875 C-51.2124422 50.58505819 -48.99119164 50.3093683 -46.77075195 50.02734375 C-41.47158341 49.3882646 -36.17354465 48.89007357 -30.83984375 48.6640625 C-29.87425537 48.61846191 -28.90866699 48.57286133 -27.91381836 48.52587891 C-25.4375 49.0625 -25.4375 49.0625 -23.59985352 51.46240234 C-22.4375 54.0625 -22.4375 54.0625 -22.4375 56.0625 C-20.7875 55.4025 -19.1375 54.7425 -17.4375 54.0625 C-17.82164062 53.45921875 -18.20578125 52.8559375 -18.6015625 52.234375 C-19.08367187 51.43515625 -19.56578125 50.6359375 -20.0625 49.8125 C-20.54976563 49.02359375 -21.03703125 48.2346875 -21.5390625 47.421875 C-22.4375 45.0625 -22.4375 45.0625 -21.765625 43 C-20.42127122 41.03882508 -19.07588952 39.14738677 -17.5625 37.3125 C-17.07007813 36.69890625 -16.57765625 36.0853125 -16.0703125 35.453125 C-14.4375 34.0625 -14.4375 34.0625 -10.4375 34.0625 C-10.07398438 34.94550781 -9.71046875 35.82851563 -9.3359375 36.73828125 C-6.4297525 43.67586647 -3.38372394 50.27117859 0.4609375 56.7578125 C1.5625 59.0625 1.5625 59.0625 1.5625 63.0625 C0.25 64.984375 0.25 64.984375 -1.4375 66.8125 C-1.994375 67.42609375 -2.55125 68.0396875 -3.125 68.671875 C-3.558125 69.13078125 -3.99125 69.5896875 -4.4375 70.0625 C-3.82003906 70.28164062 -3.20257813 70.50078125 -2.56640625 70.7265625 C12.09319824 76.21554683 25.05291813 86.33742108 31.8125 100.72265625 C37.85204656 116.15458587 37.83048671 131.71352397 31.7578125 147.1015625 C25.49864789 161.00466266 13.48893871 171.42519 -0.4375 177.0625 C-13.94654826 181.81668033 -28.49614489 181.42826238 -41.81640625 176.11328125 C-43.7572262 175.18154036 -45.593693 174.17219866 -47.4375 173.0625 C-48.406875 172.505625 -49.37625 171.94875 -50.375 171.375 C-63.35960324 161.5702996 -71.81491755 149.02696419 -75.05859375 132.9921875 C-76.24779758 123.79731255 -75.1622246 115.11730417 -73.4375 106.0625 C-77.0675 106.0625 -80.6975 106.0625 -84.4375 106.0625 C-86.4053222 102.71359157 -88.36187857 99.35890761 -90.3125 96 C-91.14587891 94.58557617 -91.14587891 94.58557617 -91.99609375 93.14257812 C-94.8725308 88.16946106 -97.20477662 83.68777569 -98.4375 78.0625 C-91.85022912 75.83473492 -85.20742947 75.25351165 -78.3125 74.5625 C-70.25618317 73.73876423 -62.26995484 72.79058404 -54.28173828 71.44726562 C-51.62337531 71.08764502 -49.11547014 70.99123491 -46.4375 71.0625 C-46.06625 70.19625 -46.06625 70.19625 -45.6875 69.3125 C-44.27022743 66.76140938 -42.52567713 65.08276893 -40.4375 63.0625 C-41.28828125 63.18367188 -42.1390625 63.30484375 -43.015625 63.4296875 C-50.24675459 64.42973734 -57.47081594 65.28443568 -64.73828125 65.97265625 C-71.64225623 66.64480303 -78.52442333 67.41593612 -85.40234375 68.31640625 C-86.21826996 68.4232222 -87.03419617 68.53003815 -87.87484741 68.64009094 C-89.53240523 68.85773595 -91.18992673 69.07565773 -92.84741211 69.29385376 C-107.36783822 71.19621471 -121.77476595 72.86484059 -136.4375 73.0625 C-134.17567003 69.11421785 -131.70017029 66.23931055 -128.4375 63.0625 C-128.1075 62.4025 -127.7775 61.7425 -127.4375 61.0625 C-126.7775 61.0625 -126.1175 61.0625 -125.4375 61.0625 C-125.17582031 60.48371094 -124.91414063 59.90492187 -124.64453125 59.30859375 C-123.36457261 56.92679369 -121.92393946 55.13933354 -120.125 53.125 C-119.50109375 52.42632812 -118.8771875 51.72765625 -118.234375 51.0078125 C-116.03400308 48.62567072 -113.73039619 46.35539619 -111.4375 44.0625 C-109.86145411 42.19633621 -108.30480606 40.31782069 -106.76953125 38.41796875 C-106.32996094 37.97066406 -105.89039062 37.52335937 -105.4375 37.0625 C-104.7775 37.0625 -104.1175 37.0625 -103.4375 37.0625 C-103.16679688 36.48371094 -102.89609375 35.90492187 -102.6171875 35.30859375 C-100.6596023 31.58140338 -98.00429435 28.3861696 -95.4375 25.0625 C-94.695 24.0725 -93.9525 23.0825 -93.1875 22.0625 C-92.32125 21.0725 -92.32125 21.0725 -91.4375 20.0625 C-90.7775 20.0625 -90.1175 20.0625 -89.4375 20.0625 C-89.16421875 19.48757812 -88.8909375 18.91265625 -88.609375 18.3203125 C-86.448449 14.15692841 -84.16763995 10.962298 -80.4375 8.0625 C-77.54443359 7.29931641 -77.54443359 7.29931641 -74.2109375 6.9140625 C-72.96699219 6.76598145 -71.72304687 6.61790039 -70.44140625 6.46533203 C-69.10708104 6.32800636 -67.77243444 6.19377125 -66.4375 6.0625 C-65.77878906 5.99625427 -65.12007813 5.93000854 -64.44140625 5.86175537 C-60.29392227 5.45237792 -56.14342704 5.08865689 -51.99014282 4.74359131 C-48.26484656 4.43379818 -44.54071788 4.11043908 -40.81640625 3.7890625 C-40.08896713 3.72663361 -39.36152802 3.66420471 -38.61204529 3.59988403 C-32.65389256 3.08685111 -26.70048205 2.53335654 -20.75 1.9375 C-19.98671387 1.86208984 -19.22342773 1.78667969 -18.43701172 1.70898438 C-15.19582607 1.38005033 -11.98018296 0.99404809 -8.7578125 0.51171875 C-5.78149846 0.10904097 -2.99757601 -0.04106269 0 0 Z " fill="#0D2845" transform="translate(164.4375,16.9375)"/>
<path d="M0 0 C1.84375 1.890625 1.84375 1.890625 3.5 4.25 C6.07189638 7.86521283 8.84368043 10.88148066 12 14 C31.73500291 36.0075184 31.73500291 36.0075184 33 44 C33.66 44 34.32 44 35 44 C41.71195602 52.08876751 42.52483069 60.86001224 42 71 C41.46089524 75.1064226 40.66834636 79.13638902 39.8125 83.1875 C39.58691406 84.27957764 39.36132812 85.37165527 39.12890625 86.49682617 C36.35695416 99.53751328 32.39433813 111.79081471 27 124 C26.69578125 124.74121094 26.3915625 125.48242188 26.078125 126.24609375 C23.0394638 133.50956021 18.97369013 140.21965009 15 147 C14.34 147 13.68 147 13 147 C12.7525 147.721875 12.505 148.44375 12.25 149.1875 C10.37865818 153.39801908 7.49137663 156.98472018 4 160 C3.34 160 2.68 160 2 160 C1.7525 160.58265625 1.505 161.1653125 1.25 161.765625 C-0.18525446 164.33114236 -1.77663013 165.83724798 -4 167.75 C-4.70125 168.36359375 -5.4025 168.9771875 -6.125 169.609375 C-8 171 -8 171 -10 171 C-10.31453125 170.13117188 -10.6290625 169.26234375 -10.953125 168.3671875 C-13.16137514 162.42087538 -15.29533086 157.1865368 -19 152 C-19.71443496 150.2939786 -20.42884878 148.58794833 -21.14306641 146.88183594 C-22.52264722 143.85226074 -24.30285848 141.08830055 -26.125 138.3125 C-26.70725342 137.4155542 -26.70725342 137.4155542 -27.30126953 136.50048828 C-31.78184567 129.68143694 -36.68061592 123.17504754 -41.7578125 116.7890625 C-43 115 -43 115 -43 113 C-44.485 112.505 -44.485 112.505 -46 112 C-47.67893192 110.05396527 -49.22376966 108.12231648 -50.75 106.0625 C-51.18884521 105.47927979 -51.62769043 104.89605957 -52.07983398 104.29516602 C-53.39613094 102.53698137 -54.6998455 100.77014448 -56 99 C-56.71800781 98.02804687 -57.43601563 97.05609375 -58.17578125 96.0546875 C-63.63831128 88.4772649 -64.18136657 83.61194885 -64.1875 74.375 C-64.20586914 72.95380859 -64.20586914 72.95380859 -64.22460938 71.50390625 C-64.25888057 54.80240946 -58.67963322 39.81975619 -48 27 C-47.34 27 -46.68 27 -46 27 C-45.78214844 26.43410156 -45.56429687 25.86820312 -45.33984375 25.28515625 C-39.93539194 16.06765098 -10.72377878 -4.48048291 0 0 Z " fill="#0E2846" transform="translate(220,314)"/>
<path d="M0 0 C0.66 0 1.32 0 2 0 C4 6 4 6 4.64916992 7.95629883 C6.11808643 12.37726532 7.6086266 16.79027768 9.11328125 21.19921875 C9.84635417 23.36197917 10.57942708 25.52473958 11.3125 27.6875 C11.67408203 28.73873047 12.03566406 29.78996094 12.40820312 30.87304688 C12.74400391 31.86755859 13.07980469 32.86207031 13.42578125 33.88671875 C13.72911377 34.77576904 14.03244629 35.66481934 14.3449707 36.58081055 C15 39 15 39 15 43 C30.18 43 45.36 43 61 43 C61 43.66 61 44.32 61 45 C59.44287109 46.34106445 59.44287109 46.34106445 57.2734375 47.86328125 C56.48839844 48.42080078 55.70335937 48.97832031 54.89453125 49.55273438 C54.06308594 50.13345703 53.23164063 50.71417969 52.375 51.3125 C50.75630953 52.45229561 49.13909269 53.59418721 47.5234375 54.73828125 C46.74838867 55.28693848 45.97333984 55.8355957 45.17480469 56.40087891 C43.22065418 57.83775428 41.3750328 59.33479314 39.5390625 60.91796875 C37 63 37 63 35 63 C35 63.66 35 64.32 35 65 C34.01 65 33.02 65 32 65 C32 65.66 32 66.32 32 67 C30.03852126 68.38938077 28.03833424 69.7260411 26 71 C26.65982992 74.66572179 27.61939446 78.09797088 28.8125 81.625 C29.16828125 82.676875 29.5240625 83.72875 29.890625 84.8125 C30.91728887 87.76235111 31.98043543 90.69510208 33.0625 93.625 C38.22136362 107.73540958 38.22136362 107.73540958 38 114 C34.50361504 112.72601667 31.71522516 111.25441373 28.7421875 109.0234375 C27.56390381 108.14594849 27.56390381 108.14594849 26.36181641 107.25073242 C25.13084229 106.32224487 25.13084229 106.32224487 23.875 105.375 C23.0298584 104.74634033 22.1847168 104.11768066 21.31396484 103.4699707 C17.69083485 100.77466466 14.08041495 98.06335003 10.484375 95.33203125 C9.54078125 94.62433594 8.5971875 93.91664062 7.625 93.1875 C6.83351563 92.58292969 6.04203125 91.97835937 5.2265625 91.35546875 C2.79642105 89.87606685 0.80233062 89.38123579 -2 89 C-2 89.66 -2 90.32 -2 91 C-2.556875 91.226875 -3.11375 91.45375 -3.6875 91.6875 C-6.17347712 92.96295 -6.17347712 92.96295 -8.375 95.375 C-10.57904408 97.57904408 -12.65508277 99.1278079 -15.24316406 100.81347656 C-19.41149248 103.62866224 -23.35365518 106.77928009 -27.34179688 109.84179688 C-28.02693359 110.36193359 -28.71207031 110.88207031 -29.41796875 111.41796875 C-30.03438232 111.89000732 -30.6507959 112.3620459 -31.28588867 112.84838867 C-33 114 -33 114 -36 115 C-37 113 -37 113 -36.14453125 109.91015625 C-35.7084109 108.6248998 -35.26385293 107.34248657 -34.8125 106.0625 C-34.58127441 105.38807861 -34.35004883 104.71365723 -34.11181641 104.01879883 C-32.44177885 99.17477042 -30.67786615 94.36624564 -28.90625 89.55859375 C-27.44040809 85.42011766 -26.20865046 81.21954894 -25 77 C-24.79246094 76.28070313 -24.58492188 75.56140625 -24.37109375 74.8203125 C-23.91004173 73.21469078 -23.45430579 71.60754357 -23 70 C-24.06927734 69.62875 -24.06927734 69.62875 -25.16015625 69.25 C-28.33302464 67.85341419 -30.70041717 66.12588958 -33.4375 64 C-36.88381405 61.35196044 -40.33181761 58.74331165 -43.89453125 56.25390625 C-44.53656494 55.80466797 -45.17859863 55.35542969 -45.84008789 54.89257812 C-47.10007959 54.01510979 -48.36353489 53.1425914 -49.63061523 52.27539062 C-51.12228504 51.23221185 -52.56650128 50.12177636 -54 49 C-54 48.34 -54 47.68 -54 47 C-55.32 46.34 -56.64 45.68 -58 45 C-58 44.34 -58 43.68 -58 43 C-43.15 43 -28.3 43 -13 43 C-12.67 41.35 -12.34 39.7 -12 38 C-5.55445545 11.10891089 -5.55445545 11.10891089 0 0 Z " fill="#FC3333" transform="translate(344,24)"/>
<path d="M0 0 C1.29744141 0.01353516 1.29744141 0.01353516 2.62109375 0.02734375 C3.26175781 0.03894531 3.90242187 0.05054687 4.5625 0.0625 C3.12354816 3.40027488 1.32555719 5.45872174 -1.3125 7.9375 C-4.55415933 11.09154691 -7.01793264 14.22456557 -9.4375 18.0625 C-12.56217112 21.98836884 -15.89404661 25.51904661 -19.4375 29.0625 C-22.38721117 32.33841453 -25.3122733 35.63611773 -28.04296875 39.09765625 C-28.54441406 39.72542969 -29.04585938 40.35320313 -29.5625 41 C-30.21605469 41.84884766 -30.21605469 41.84884766 -30.8828125 42.71484375 C-34.41232797 45.77434836 -39.32178476 45.17366171 -43.75 45.125 C-45.35294922 45.11146484 -45.35294922 45.11146484 -46.98828125 45.09765625 C-47.79652344 45.08605469 -48.60476562 45.07445312 -49.4375 45.0625 C-47.94215495 40.07178588 -44.97124989 37.08793031 -41.4375 33.4375 C-40.35237379 32.30118859 -39.26897358 31.16322583 -38.1875 30.0234375 C-37.70796875 29.52634277 -37.2284375 29.02924805 -36.734375 28.51708984 C-35.21775872 26.88420771 -35.21775872 26.88420771 -33.4375 24.0625 C-32.7775 24.0625 -32.1175 24.0625 -31.4375 24.0625 C-31.06625 23.19625 -31.06625 23.19625 -30.6875 22.3125 C-29.27022743 19.76140938 -27.52567713 18.08276893 -25.4375 16.0625 C-35.34466766 16.77055306 -45.23428893 17.63071716 -55.11645508 18.62719727 C-56.80781212 18.79427536 -58.49991501 18.95394783 -60.19262695 19.10668945 C-62.66566663 19.33077983 -65.13526918 19.57875884 -67.60546875 19.83203125 C-68.74280708 19.92760063 -68.74280708 19.92760063 -69.90312195 20.02510071 C-72.25642531 20.23938158 -72.25642531 20.23938158 -75.4375 21.0625 C-76.90509347 22.87778553 -76.90509347 22.87778553 -77.4375 25.0625 C-78.0975 26.0525 -78.7575 27.0425 -79.4375 28.0625 C-80.0975 28.0625 -80.7575 28.0625 -81.4375 28.0625 C-81.71295654 28.65562988 -81.98841309 29.24875977 -82.2722168 29.85986328 C-83.38044899 31.95466127 -84.52943228 33.52633004 -86.08203125 35.3046875 C-86.59443359 35.89636719 -87.10683594 36.48804688 -87.63476562 37.09765625 C-88.16779297 37.70480469 -88.70082031 38.31195313 -89.25 38.9375 C-90.29856288 40.14289367 -91.34674364 41.34861986 -92.39453125 42.5546875 C-92.9045166 43.13702148 -93.41450195 43.71935547 -93.93994141 44.31933594 C-95.40029163 46.01918931 -96.79934717 47.75810146 -98.19921875 49.5078125 C-99.30716797 50.77238281 -99.30716797 50.77238281 -100.4375 52.0625 C-101.0975 52.0625 -101.7575 52.0625 -102.4375 52.0625 C-103.0975 53.3825 -103.7575 54.7025 -104.4375 56.0625 C-104.1075 56.3925 -103.7775 56.7225 -103.4375 57.0625 C-101.60081589 56.94868744 -101.60081589 56.94868744 -99.4140625 56.57421875 C-98.56666504 56.4457959 -97.71926758 56.31737305 -96.84619141 56.18505859 C-95.46826416 55.96970459 -95.46826416 55.96970459 -94.0625 55.75 C-85.97068346 54.53365582 -77.88790654 53.50997781 -69.74462891 52.7097168 C-66.41970316 52.38178799 -63.13683514 52.01656962 -59.83203125 51.51171875 C-56.34344324 51.0500529 -53.01660729 50.96374632 -49.5 51 C-47.78490234 51.01353516 -47.78490234 51.01353516 -46.03515625 51.02734375 C-45.17792969 51.03894531 -44.32070312 51.05054688 -43.4375 51.0625 C-42.4475 53.5375 -42.4475 53.5375 -41.4375 56.0625 C-42.0975 56.0625 -42.7575 56.0625 -43.4375 56.0625 C-43.1075 57.0525 -42.7775 58.0425 -42.4375 59.0625 C-42.4375 60.3825 -42.4375 61.7025 -42.4375 63.0625 C-49.83508918 64.33142953 -57.20661689 65.2726349 -64.67578125 65.97265625 C-71.60092891 66.64335823 -78.50375849 67.4124245 -85.40234375 68.31640625 C-86.21818939 68.4232222 -87.03403503 68.53003815 -87.87460327 68.64009094 C-89.53224385 68.85772542 -91.18984674 69.0756472 -92.84741211 69.29385376 C-107.36783822 71.19621471 -121.77476595 72.86484059 -136.4375 73.0625 C-134.17567003 69.11421785 -131.70017029 66.23931055 -128.4375 63.0625 C-128.1075 62.4025 -127.7775 61.7425 -127.4375 61.0625 C-126.7775 61.0625 -126.1175 61.0625 -125.4375 61.0625 C-125.17582031 60.48371094 -124.91414063 59.90492187 -124.64453125 59.30859375 C-123.36457261 56.92679369 -121.92393946 55.13933354 -120.125 53.125 C-119.50109375 52.42632812 -118.8771875 51.72765625 -118.234375 51.0078125 C-116.03400308 48.62567072 -113.73039619 46.35539619 -111.4375 44.0625 C-109.86145411 42.19633621 -108.30480606 40.31782069 -106.76953125 38.41796875 C-106.32996094 37.97066406 -105.89039062 37.52335937 -105.4375 37.0625 C-104.7775 37.0625 -104.1175 37.0625 -103.4375 37.0625 C-103.16679688 36.48371094 -102.89609375 35.90492187 -102.6171875 35.30859375 C-100.6596023 31.58140338 -98.00429435 28.3861696 -95.4375 25.0625 C-94.695 24.0725 -93.9525 23.0825 -93.1875 22.0625 C-92.32125 21.0725 -92.32125 21.0725 -91.4375 20.0625 C-90.7775 20.0625 -90.1175 20.0625 -89.4375 20.0625 C-89.16421875 19.48757812 -88.8909375 18.91265625 -88.609375 18.3203125 C-86.448449 14.15692841 -84.16763995 10.962298 -80.4375 8.0625 C-77.54443359 7.29931641 -77.54443359 7.29931641 -74.2109375 6.9140625 C-72.96699219 6.76598145 -71.72304687 6.61790039 -70.44140625 6.46533203 C-69.10708104 6.32800636 -67.77243444 6.19377125 -66.4375 6.0625 C-65.77878906 5.99625427 -65.12007813 5.93000854 -64.44140625 5.86175537 C-60.29392227 5.45237792 -56.14342704 5.08865689 -51.99014282 4.74359131 C-48.26484656 4.43379818 -44.54071788 4.11043908 -40.81640625 3.7890625 C-40.08896713 3.72663361 -39.36152802 3.66420471 -38.61204529 3.59988403 C-32.65389256 3.08685111 -26.70048205 2.53335654 -20.75 1.9375 C-19.98671387 1.86208984 -19.22342773 1.78667969 -18.43701172 1.70898438 C-15.19582607 1.38005033 -11.98018296 0.99404809 -8.7578125 0.51171875 C-5.78149846 0.10904097 -2.99757601 -0.04106269 0 0 Z " fill="#172F4C" transform="translate(164.4375,16.9375)"/>
<path d="M0 0 C1.29744141 0.01353516 1.29744141 0.01353516 2.62109375 0.02734375 C3.26175781 0.03894531 3.90242188 0.05054687 4.5625 0.0625 C3.12354816 3.40027488 1.32555719 5.45872174 -1.3125 7.9375 C-4.55415933 11.09154691 -7.01793264 14.22456557 -9.4375 18.0625 C-12.56217112 21.98836884 -15.89404661 25.51904661 -19.4375 29.0625 C-22.38721117 32.33841453 -25.3122733 35.63611773 -28.04296875 39.09765625 C-28.54441406 39.72542969 -29.04585937 40.35320313 -29.5625 41 C-29.99820313 41.56589844 -30.43390625 42.13179687 -30.8828125 42.71484375 C-34.41232797 45.77434836 -39.32178476 45.17366171 -43.75 45.125 C-45.35294922 45.11146484 -45.35294922 45.11146484 -46.98828125 45.09765625 C-47.79652344 45.08605469 -48.60476562 45.07445312 -49.4375 45.0625 C-47.94215495 40.07178588 -44.97124989 37.08793031 -41.4375 33.4375 C-40.35237379 32.30118859 -39.26897358 31.16322583 -38.1875 30.0234375 C-37.70796875 29.52634277 -37.2284375 29.02924805 -36.734375 28.51708984 C-35.21775872 26.88420771 -35.21775872 26.88420771 -33.4375 24.0625 C-32.7775 24.0625 -32.1175 24.0625 -31.4375 24.0625 C-31.19 23.485 -30.9425 22.9075 -30.6875 22.3125 C-29.4375 20.0625 -29.4375 20.0625 -25.4375 16.0625 C-29.7275 16.0625 -34.0175 16.0625 -38.4375 16.0625 C-38.4375 15.7325 -38.4375 15.4025 -38.4375 15.0625 C-36.7875 14.7325 -35.1375 14.4025 -33.4375 14.0625 C-33.4375 13.0725 -33.4375 12.0825 -33.4375 11.0625 C-33.1075 10.4025 -32.7775 9.7425 -32.4375 9.0625 C-31.7775 9.0625 -31.1175 9.0625 -30.4375 9.0625 C-31.0975 8.0725 -31.7575 7.0825 -32.4375 6.0625 C-33.4275 6.5575 -33.4275 6.5575 -34.4375 7.0625 C-35.8884942 7.07849436 -37.34058507 7.0283149 -38.7890625 6.94140625 C-39.63984375 6.89306641 -40.490625 6.84472656 -41.3671875 6.79492188 C-42.25664063 6.73884766 -43.14609375 6.68277344 -44.0625 6.625 C-44.9596875 6.57279297 -45.856875 6.52058594 -46.78125 6.46679688 C-49.00034012 6.3369565 -51.21899871 6.20198661 -53.4375 6.0625 C-53.4375 5.7325 -53.4375 5.4025 -53.4375 5.0625 C-51.51164062 4.88074219 -51.51164062 4.88074219 -49.546875 4.6953125 C-40.21723988 3.81249111 -30.88848687 2.92062875 -21.5625 2 C-20.75006836 1.92088379 -19.93763672 1.84176758 -19.10058594 1.76025391 C-15.6177904 1.41400683 -12.17039428 1.02278376 -8.70703125 0.5078125 C-5.74897287 0.10492283 -2.9798814 -0.04082029 0 0 Z " fill="#1C334F" transform="translate(164.4375,16.9375)"/>
<path d="M0 0 C-1.32327141 4.36679564 -3.6552884 7.13578257 -6.66015625 10.44921875 C-8.09089081 11.97649454 -8.09089081 11.97649454 -9 14 C-9.66 14 -10.32 14 -11 14 C-11.2475 14.5775 -11.495 15.155 -11.75 15.75 C-13.75244629 19.35440332 -15.69571107 21.60099675 -19.70703125 22.828125 C-28.21027734 23.98328296 -36.4346058 24.21324633 -45 24 C-40.7897786 18.02696232 -36.04796665 12.65835584 -31.07421875 7.3203125 C-28.98359832 5.18610492 -28.98359832 5.18610492 -28 3 C-25.9621582 2.49755859 -25.9621582 2.49755859 -23.30078125 2.1484375 C-22.33849609 2.01953125 -21.37621094 1.890625 -20.38476562 1.7578125 C-18.86399414 1.56832031 -18.86399414 1.56832031 -17.3125 1.375 C-16.31798828 1.2409375 -15.32347656 1.106875 -14.29882812 0.96875 C-9.50523766 0.34363774 -4.84561491 -0.18160737 0 0 Z " fill="#122C48" transform="translate(121,41)"/>
<path d="M0 0 C1.32 0.33 2.64 0.66 4 1 C3.67 1.99 3.34 2.98 3 4 C2.34 4 1.68 4 1 4 C-0.01111093 7.04913228 -0.01111093 7.04913228 1 10 C-0.98 10 -2.96 10 -5 10 C-5 10.66 -5 11.32 -5 12 C-11.64217355 12.85486605 -18.11907333 13.15350288 -24.8125 13.125 C-25.73998047 13.12886719 -26.66746094 13.13273437 -27.62304688 13.13671875 C-28.51701172 13.13542969 -29.41097656 13.13414063 -30.33203125 13.1328125 C-31.13358643 13.13168457 -31.9351416 13.13055664 -32.76098633 13.12939453 C-34.96275724 13.00215229 -36.88524323 12.60870661 -39 12 C-39 9 -39 9 -38 8 C-39.65 7.67 -41.3 7.34 -43 7 C-37.20298853 2.03113303 -32.86500375 0.69238909 -25.29296875 0.8046875 C-24.20487663 0.80893234 -24.20487663 0.80893234 -23.09480286 0.81326294 C-20.79219632 0.82440201 -18.48998773 0.84949434 -16.1875 0.875 C-14.62044835 0.88503794 -13.05339057 0.89416237 -11.48632812 0.90234375 C-7.65740022 0.9243207 -3.82876744 0.95880661 0 1 C0 0.67 0 0.34 0 0 Z " fill="#162F4B" transform="translate(131,22)"/>
<path d="M0 0 C1.546875 0.0309375 1.546875 0.0309375 3.125 0.0625 C2.526875 0.330625 1.92875 0.59875 1.3125 0.875 C-0.84724808 2.04743467 -2.23290256 3.25619282 -3.875 5.0625 C-2.225 4.7325 -0.575 4.4025 1.125 4.0625 C0.795 5.0525 0.465 6.0425 0.125 7.0625 C-0.535 7.0625 -1.195 7.0625 -1.875 7.0625 C-1.875 8.0525 -1.875 9.0425 -1.875 10.0625 C5.055 10.5575 5.055 10.5575 12.125 11.0625 C12.125 11.3925 12.125 11.7225 12.125 12.0625 C10.92101562 12.16046875 9.71703125 12.2584375 8.4765625 12.359375 C6.90094773 12.50943355 5.32543147 12.66052912 3.75 12.8125 C2.9559375 12.874375 2.161875 12.93625 1.34375 13 C-0.80439085 13.218455 -2.80009953 13.46305859 -4.875 14.0625 C-6.4022851 15.86617901 -6.4022851 15.86617901 -6.875 18.0625 C-7.535 19.0525 -8.195 20.0425 -8.875 21.0625 C-9.535 21.0625 -10.195 21.0625 -10.875 21.0625 C-11.13023438 21.63484375 -11.38546875 22.2071875 -11.6484375 22.796875 C-13.00587159 25.30423733 -14.59474104 27.1955456 -16.5 29.3125 C-17.13164063 30.01890625 -17.76328125 30.7253125 -18.4140625 31.453125 C-18.89617187 31.98421875 -19.37828125 32.5153125 -19.875 33.0625 C-20.205 31.7425 -20.535 30.4225 -20.875 29.0625 C-19.885 28.7325 -18.895 28.4025 -17.875 28.0625 C-17.875 27.4025 -17.875 26.7425 -17.875 26.0625 C-21.94869424 24.02565288 -24.46437864 24.0367741 -28.875 25.0625 C-27.40789058 20.22103891 -24.5237256 16.50301028 -20.875 13.0625 C-20.215 13.0625 -19.555 13.0625 -18.875 13.0625 C-18.61203125 12.48886719 -18.3490625 11.91523437 -18.078125 11.32421875 C-15.52374598 6.52231793 -12.12898214 1.81382738 -6.875 0.0625 C-4.58323864 0.0625 -2.29146332 0.03695909 0 0 Z " fill="#1C3550" transform="translate(93.875,23.9375)"/>
<path d="M0 0 C7.19303576 1.11044561 13.73377026 3.26118455 20.5546875 5.765625 C34.68229391 10.82721641 49.50674183 12.24418898 64.3125 14.125 C65.74676409 14.30844295 67.181009 14.49203591 68.61523438 14.67578125 C72.07660449 15.11890974 75.53822637 15.56003358 79 16 C79 16.33 79 16.66 79 17 C54.91957189 17.76548616 54.91957189 17.76548616 45.11328125 14.0234375 C38.96164911 12.00119456 32.42073673 11.62641334 26 11 C26 10.34 26 9.68 26 9 C24.5459375 9.0309375 24.5459375 9.0309375 23.0625 9.0625 C20 9 20 9 19 8 C16.67182036 7.63239269 14.3381615 7.29758419 12 7 C12.165 7.515625 12.33 8.03125 12.5 8.5625 C13.15049 11.73363876 13.0620734 14.77218334 13 18 C7.59864621 12.9163729 2.25288357 7.20922743 0 0 Z " fill="#F24342" transform="translate(31,504)"/>
<path d="M0 0 C2.5625 0.125 2.5625 0.125 4.5625 1.125 C5.375 3 5.375 3 5.5625 5.125 C4.58399805 6.14604551 3.58269573 7.1456121 2.5625 8.125 C2.5625 9.445 2.5625 10.765 2.5625 12.125 C-2.7175 12.125 -7.9975 12.125 -13.4375 12.125 C-13.1075 11.465 -12.7775 10.805 -12.4375 10.125 C-12.623125 9.155625 -12.80875 8.18625 -13 7.1875 C-13.4375 4.125 -13.4375 4.125 -11.4375 1.125 C-9.52734375 0.8671875 -9.52734375 0.8671875 -7.375 1 C-6.075625 1.04125 -4.77625 1.0825 -3.4375 1.125 C-2.4375 0.125 -2.4375 0.125 0 0 Z " fill="#102A46" transform="translate(79.4375,72.875)"/>
<path d="M0 0 C0.66 0 1.32 0 2 0 C5.38476273 16.86337147 6.41026904 33.04000131 3 50 C2.67 50 2.34 50 2 50 C2.00523682 48.88963379 2.01047363 47.77926758 2.01586914 46.63525391 C2.03393985 42.52409671 2.04543962 38.41294304 2.05493164 34.30175781 C2.05996711 32.52082733 2.06679581 30.739901 2.07543945 28.95898438 C2.08753942 26.40233335 2.09323609 23.84573688 2.09765625 21.2890625 C2.10281754 20.49005524 2.10797882 19.69104797 2.11329651 18.86782837 C2.2133875 14.80308095 2.2133875 14.80308095 1 11 C0.34 11 -0.32 11 -1 11 C-1.66 10.34 -2.32 9.68 -3 9 C-3.40992188 9.6496875 -3.81984375 10.299375 -4.2421875 10.96875 C-4.78101563 11.8040625 -5.31984375 12.639375 -5.875 13.5 C-6.40867187 14.3353125 -6.94234375 15.170625 -7.4921875 16.03125 C-7.98976563 16.6809375 -8.48734375 17.330625 -9 18 C-9.66 18 -10.32 18 -11 18 C-11.33 19.32 -11.66 20.64 -12 22 C-12.66 21.67 -13.32 21.34 -14 21 C-14 21.99 -14 22.98 -14 24 C-15.98 24.66 -17.96 25.32 -20 26 C-19.01 24.515 -19.01 24.515 -18 23 C-17.34 23 -16.68 23 -16 23 C-15.773125 22.484375 -15.54625 21.96875 -15.3125 21.4375 C-13.21139246 17.53544314 -10.72757488 13.67243951 -7.53125 10.578125 C-5.02685026 7.99705996 -3.30572018 4.89996578 -1.40234375 1.86328125 C-0.93957031 1.24839844 -0.47679687 0.63351563 0 0 Z " fill="#EC5658" transform="translate(347,144)"/>
<path d="M0 0 C0.5775 0.309375 1.155 0.61875 1.75 0.9375 C1.75 1.5975 1.75 2.2575 1.75 2.9375 C0.76 3.4325 0.76 3.4325 -0.25 3.9375 C-0.90555119 6.46483235 -0.90555119 6.46483235 -1.25 8.9375 C-2.054375 9.06125 -2.054375 9.06125 -2.875 9.1875 C-6.0852431 10.20126098 -8.51292392 12.00910549 -11.25 13.9375 C-11.91 13.6075 -12.57 13.2775 -13.25 12.9375 C-14.87014134 5.9940371 -14.87014134 5.9940371 -12.5625 2.0625 C-7.95301769 -2.1732405 -5.61387198 -2.6509951 0 0 Z " fill="#112A47" transform="translate(74.25,49.0625)"/>
<path d="M0 0 C0.33 0 0.66 0 1 0 C0.67 4.95 0.34 9.9 0 15 C-0.66 15 -1.32 15 -2 15 C-2.33 16.32 -2.66 17.64 -3 19 C-7.19514597 19.02507213 -11.39025006 19.04303239 -15.58544922 19.05493164 C-17.00700644 19.05990212 -18.42855872 19.06668084 -19.85009766 19.07543945 C-28.61434357 19.12801256 -37.27266264 18.92025062 -46 18 C-46 18.66 -46 19.32 -46 20 C-44.35 19.67 -42.7 19.34 -41 19 C-41 20.65 -41 22.3 -41 24 C-39.68 24 -38.36 24 -37 24 C-37.33 24.99 -37.66 25.98 -38 27 C-41.465 25.02 -41.465 25.02 -45 23 C-45 22.34 -45 21.68 -45 21 C-46.32 20.34 -47.64 19.68 -49 19 C-49 18.34 -49 17.68 -49 17 C-34.15 17 -19.3 17 -4 17 C-3.67 15.35 -3.34 13.7 -3 12 C-2.48982696 9.89322327 -1.96866892 7.78908138 -1.4375 5.6875 C-1.16808594 4.61886719 -0.89867187 3.55023438 -0.62109375 2.44921875 C-0.41613281 1.64097656 -0.21117187 0.83273438 0 0 Z " fill="#E46666" transform="translate(335,50)"/>
<path d="M0 0 C3.375 4.5 3.375 4.5 4 8 C8.22104999 5.27809315 8.22104999 5.27809315 12 2 C12.73828125 3.703125 12.73828125 3.703125 13 6 C11.41796875 8.359375 11.41796875 8.359375 9.1875 10.75 C8.45917969 11.54921875 7.73085937 12.3484375 6.98046875 13.171875 C5 15 5 15 3 15 C2.566875 15.9590625 2.566875 15.9590625 2.125 16.9375 C1 19 1 19 -1 20 C-0.773125 19.278125 -0.54625 18.55625 -0.3125 17.8125 C0.08398299 14.24415308 -0.95622213 12.86128901 -3 10 C-3.99 10.33 -4.98 10.66 -6 11 C-6.66 10.34 -7.32 9.68 -8 9 C-5.36 6.03 -2.72 3.06 0 0 Z " fill="#152C49" transform="translate(59,54)"/>
<path d="M0 0 C3.63 0 7.26 0 11 0 C3.60182716 7.39817284 -17.63189763 6.40789397 -27.6875 6.4375 C-38.91063521 6.34563526 -49.94455858 4.84012659 -61 3 C-61 2.67 -61 2.34 -61 2 C-58.54159395 1.97308315 -56.08348118 1.95320198 -53.625 1.9375 C-52.92632812 1.92912109 -52.22765625 1.92074219 -51.5078125 1.91210938 C-46.2265625 1.88671875 -46.2265625 1.88671875 -44 3 C-41.99798793 3.09771309 -39.99267543 3.13077389 -37.98828125 3.1328125 C-36.14786255 3.13571289 -36.14786255 3.13571289 -34.27026367 3.13867188 C-32.96420166 3.13416016 -31.65813965 3.12964844 -30.3125 3.125 C-28.34083862 3.12209961 -28.34083862 3.12209961 -26.3293457 3.11914062 C-17.51434821 3.07987803 -8.77580821 2.84878283 0 2 C0 1.34 0 0.68 0 0 Z " fill="#E97E7E" transform="translate(191,571)"/>
<path d="M0 0 C0 0.99 0 1.98 0 3 C2.85188268 5.69344475 5.12650844 7.33215663 9 8 C9.66 8.33 10.32 8.66 11 9 C11 8.34 11 7.68 11 7 C11.78375 6.87625 12.5675 6.7525 13.375 6.625 C16.14057822 6.20882007 16.14057822 6.20882007 18 4 C19.64991582 3.29289322 21.31562256 2.62056011 23 2 C23 5 23 5 21.36328125 7.109375 C13.9278353 13.05773176 0.12891085 11.22727579 -9 11 C-8.06558465 9.72689688 -7.12732889 8.456612 -6.1875 7.1875 C-5.66542969 6.47980469 -5.14335938 5.77210937 -4.60546875 5.04296875 C-3.16871123 3.21468607 -1.68184237 1.60103312 0 0 Z " fill="#2B3F55" transform="translate(85,54)"/>
<path d="M0 0 C3.74367672 1.24789224 4.24365718 2.86771251 5.95703125 6.27148438 C6.30121094 6.98626953 6.64539063 7.70105469 7 8.4375 C7.35449219 9.15873047 7.70898438 9.87996094 8.07421875 10.62304688 C10.62816099 15.93505686 12.6714516 21.24295695 14 27 C13.34 27.66 12.68 28.32 12 29 C11.51891725 27.58398286 11.04021859 26.16715563 10.5625 24.75 C10.29566406 23.96109375 10.02882813 23.1721875 9.75390625 22.359375 C9 20 9 20 8.515625 17.80859375 C7.75758601 15.14971457 6.32365605 14.39419363 4 13 C1.85266073 12.29485154 1.85266073 12.29485154 0 12 C-0.12375 12.763125 -0.2475 13.52625 -0.375 14.3125 C-1 17 -1 17 -3 20 C-3.48452463 13.05514697 -1.69287491 6.7009632 0 0 Z " fill="#EB4645" transform="translate(269,384)"/>
<path d="M0 0 C-3.77740519 2.07463705 -7.81094436 3.36587495 -11.875 4.75 C-20.42434637 7.71511233 -28.66689576 11.16908798 -36.93017578 14.86279297 C-38.23765824 15.44608169 -39.54647727 16.02638466 -40.85668945 16.60351562 C-42.65218549 17.39441369 -44.4434137 18.1949799 -46.234375 18.99609375 C-47.14703125 19.32738281 -48.0596875 19.65867187 -49 20 C-49.66 19.67 -50.32 19.34 -51 19 C-49.60399265 16.2079853 -47.99583616 15.99837067 -45.125 14.875 C-43.79855469 14.34519531 -43.79855469 14.34519531 -42.4453125 13.8046875 C-40 13 -40 13 -37 13 C-37 12.34 -37 11.68 -37 11 C-35.88625 10.5875 -34.7725 10.175 -33.625 9.75 C-29.50889423 8.21468524 -25.44929877 6.55721984 -21.39453125 4.8671875 C-19 4 -19 4 -16.26171875 3.5078125 C-15.51535156 3.34023438 -14.76898438 3.17265625 -14 3 C-13.67 2.34 -13.34 1.68 -13 1 C-8.62669456 0.27111576 -4.4383722 -0.13869913 0 0 Z " fill="#E96B6E" transform="translate(255,290)"/>
<path d="M0 0 C1.43739513 -0.02712066 2.87493863 -0.04645067 4.3125 -0.0625 C5.51326172 -0.07990234 5.51326172 -0.07990234 6.73828125 -0.09765625 C9 0 9 0 12 1 C12.33 1.66 12.66 2.32 13 3 C15.32156597 3.40729228 17.6568787 3.74438677 20 4 C18.64978174 8.41889613 16.73884332 10.34345343 13 13 C12.67 10.36 12.34 7.72 12 5 C11.38511719 5.34933594 10.77023438 5.69867188 10.13671875 6.05859375 C9.32847656 6.51363281 8.52023438 6.96867187 7.6875 7.4375 C6.48673828 8.11619141 6.48673828 8.11619141 5.26171875 8.80859375 C3 10 3 10 0 11 C0.47202486 6.75177626 2.96655518 4.80010291 6 2 C3.03 1.505 3.03 1.505 0 1 C0 0.67 0 0.34 0 0 Z " fill="#263C56" transform="translate(133,31)"/>
<path d="M0 0 C0.33 0 0.66 0 1 0 C1.33 16.83 1.66 33.66 2 51 C-6.53491662 38.19762507 -2.1478533 14.42130075 0 0 Z " fill="#EA605F" transform="translate(112,286)"/>
<path d="M0 0 C2.31082041 4.45658222 4 7.90360271 4 13 C19.18 13 34.36 13 50 13 C50 13.66 50 14.32 50 15 C47.5 16.625 47.5 16.625 45 18 C45 16.68 45 15.36 45 14 C44.4330542 14.03029297 43.8661084 14.06058594 43.28198242 14.09179688 C32.94411729 14.63266516 22.60203737 15.11279338 12.25 15.25 C11.04573364 15.2819043 11.04573364 15.2819043 9.81713867 15.31445312 C7.578125 15.328125 7.578125 15.328125 4 15 C2 12 2 12 2 8 C1.34 8 0.68 8 0 8 C0 5.36 0 2.72 0 0 Z " fill="#E64C4B" transform="translate(355,54)"/>
<path d="M0 0 C0.66 0 1.32 0 2 0 C2.89369425 2.41117508 3.76501766 4.8268206 4.625 7.25 C4.88023437 7.93191406 5.13546875 8.61382812 5.3984375 9.31640625 C7.19059227 14.44396017 7.19059227 14.44396017 6.1484375 17.484375 C5.76945312 17.98453125 5.39046875 18.4846875 5 19 C5 17.35 5 15.7 5 14 C4.34 14 3.68 14 3 14 C2.814375 12.2984375 2.814375 12.2984375 2.625 10.5625 C2.41875 9.386875 2.2125 8.21125 2 7 C1.34 6.67 0.68 6.34 0 6 C-0.15149298 9.62885324 -0.15149298 9.62885324 1 13 C0.236875 13.66 -0.52625 14.32 -1.3125 15 C-4.56776694 18.20902735 -5.61456414 21.69785705 -7 26 C-8.17080252 22.48759244 -7.77349427 21.59887314 -6.6015625 18.18359375 C-6.28703125 17.25482422 -5.9725 16.32605469 -5.6484375 15.36914062 C-5.31070312 14.40169922 -4.97296875 13.43425781 -4.625 12.4375 C-4.295 11.46619141 -3.965 10.49488281 -3.625 9.49414062 C-1.19836882 2.39673764 -1.19836882 2.39673764 0 0 Z " fill="#E66C6E" transform="translate(344,24)"/>
<path d="M0 0 C2.47359354 0.95752008 3.73064878 1.49496645 5 3.875 C5 6 5 6 3.1875 8.25 C1 10 1 10 -1 10 C-1 10.66 -1 11.32 -1 12 C-3.31 12 -5.62 12 -8 12 C-8 10.68 -8 9.36 -8 8 C-5.6875 6 -5.6875 6 -3 4 C-1.23676495 1.87396815 -1.23676495 1.87396815 0 0 Z " fill="#0B2543" transform="translate(129,49)"/>
<path d="M0 0 C1.485 0.99 1.485 0.99 3 2 C3 2.99 3 3.98 3 5 C3.66 5 4.32 5 5 5 C11.79374535 13.18733414 12.33881747 21.76018318 12 32 C11.34 32 10.68 32 10 32 C10 29.03 10 26.06 10 23 C9.01 22.67 8.02 22.34 7 22 C7.061875 20.7315625 7.061875 20.7315625 7.125 19.4375 C6.98534119 15.5968828 6.37994538 12.58785799 5 9 C4.319375 8.67 3.63875 8.34 2.9375 8 C2.298125 7.67 1.65875 7.34 1 7 C0.25 3.375 0.25 3.375 0 0 Z " fill="#344660" transform="translate(250,353)"/>
<path d="M0 0 C1.65 0 3.3 0 5 0 C5 0.66 5 1.32 5 2 C-1.34622147 7.25455494 -9.1235112 10.6133864 -16.5625 14 C-17.45549805 14.41000244 -18.34849609 14.82000488 -19.26855469 15.24243164 C-20.1093457 15.6161792 -20.95013672 15.98992676 -21.81640625 16.375 C-22.95251343 16.88160156 -22.95251343 16.88160156 -24.11157227 17.3984375 C-26 18 -26 18 -28 17 C-27.67 16.34 -27.34 15.68 -27 15 C-26.01 15 -25.02 15 -24 15 C-24 14.34 -24 13.68 -24 13 C-22.02 13 -20.04 13 -18 13 C-18 12.34 -18 11.68 -18 11 C-17.01 11 -16.02 11 -15 11 C-15 10.34 -15 9.68 -15 9 C-13.68 9 -12.36 9 -11 9 C-11 8.34 -11 7.68 -11 7 C-10.01 7 -9.02 7 -8 7 C-8 6.34 -8 5.68 -8 5 C-6.8553125 4.7834375 -6.8553125 4.7834375 -5.6875 4.5625 C-2.91827092 4.0367406 -2.91827092 4.0367406 0 3 C0 2.01 0 1.02 0 0 Z " fill="#E85053" transform="translate(292,268)"/>
<path d="M0 0 C0.66 0.33 1.32 0.66 2 1 C0.35491534 3.78485322 -0.44706237 4.85582663 -3.63671875 5.6875 C-4.64347656 5.790625 -5.65023437 5.89375 -6.6875 6 C-10.64470364 6.52857955 -13.75301569 7.12282083 -17.25 9.0625 C-24.49638809 13.05692295 -32.95822171 12.12062667 -41 12 C-41 11.67 -41 11.34 -41 11 C-40.18917969 10.89042969 -39.37835938 10.78085938 -38.54296875 10.66796875 C-26.12164665 8.88936268 -13.82101369 5.8291793 -2.2734375 0.81640625 C-1.52320313 0.54699219 -0.77296875 0.27757812 0 0 Z " fill="#E96867" transform="translate(294,190)"/>
<path d="M0 0 C0.60546875 1.80859375 0.60546875 1.80859375 1 4 C-1.17086275 7.93971389 -3.37553972 10.4110998 -7 13 C-7 13.66 -7 14.32 -7 15 C-4.03 15.495 -4.03 15.495 -1 16 C-1 16.33 -1 16.66 -1 17 C-4.96 17 -8.92 17 -13 17 C-10.75 11.375 -10.75 11.375 -8.3984375 8.88671875 C-7.90859375 8.36142578 -7.41875 7.83613281 -6.9140625 7.29492188 C-6.40617187 6.76447266 -5.89828125 6.23402344 -5.375 5.6875 C-4.6015625 4.86282227 -4.6015625 4.86282227 -3.8125 4.02148438 C-2.54799382 2.67501946 -1.27485078 1.33667465 0 0 Z " fill="#4D5D6D" transform="translate(128,45)"/>
<path d="M0 0 C8.73777302 0.78847937 17.42766911 1.92489551 26.125 3.0625 C27.57289922 3.25078528 29.02081577 3.4389373 30.46875 3.62695312 C33.97936763 4.08310102 37.48974804 4.54104556 41 5 C41 5.33 41 5.66 41 6 C26.41208211 6.59869596 13.73003741 6.2233838 0 1 C0 0.67 0 0.34 0 0 Z " fill="#E86866" transform="translate(69,515)"/>
<path d="M0 0 C-1.32 0.33 -2.64 0.66 -4 1 C-4 1.66 -4 2.32 -4 3 C-12.7713859 3.89427808 -21.43723836 4.12469647 -30.25 4.0625 C-32.10044922 4.05573242 -32.10044922 4.05573242 -33.98828125 4.04882812 C-36.99224069 4.03718487 -39.99609266 4.02083376 -43 4 C-43 3.67 -43 3.34 -43 3 C-42.28569824 2.9498877 -41.57139648 2.89977539 -40.83544922 2.84814453 C-23.07141913 1.65709542 -23.07141913 1.65709542 -5.44140625 -0.73046875 C-3 -1 -3 -1 0 0 Z " fill="#E76563" transform="translate(160,518)"/>
<path d="M0 0 C0.89203125 0.00902344 1.7840625 0.01804687 2.703125 0.02734375 C3.37859375 0.03894531 4.0540625 0.05054687 4.75 0.0625 C4.42 0.7225 4.09 1.3825 3.75 2.0625 C2.780625 2.206875 1.81125 2.35125 0.8125 2.5 C-0.7034375 2.7784375 -0.7034375 2.7784375 -2.25 3.0625 C-3.99627478 5.68191217 -4.63722388 7.10074877 -5.25 10.0625 C-6.9 10.0625 -8.55 10.0625 -10.25 10.0625 C-10.25 7.0625 -10.25 7.0625 -9.25 6.0625 C-10.9 5.7325 -12.55 5.4025 -14.25 5.0625 C-9.36058747 0.85217254 -6.36803965 -0.08379 0 0 Z " fill="#0B2540" transform="translate(102.25,23.9375)"/>
<path d="M0 0 C0.66 0 1.32 0 2 0 C1.49888559 11.99218623 -0.32461013 21.43203266 -6 32 C-6.33 32 -6.66 32 -7 32 C-7 30.35 -7 28.7 -7 27 C-6.34 27 -5.68 27 -5 27 C-5 25.68 -5 24.36 -5 23 C-4.34 23 -3.68 23 -3 23 C-3.88214887 20.11785113 -3.88214887 20.11785113 -5 18 C-4.071875 16.5459375 -4.071875 16.5459375 -3.125 15.0625 C-0.23071746 10.35180565 -0.19566961 5.41026466 0 0 Z " fill="#3A4A5E" transform="translate(199,138)"/>
<path d="M0 0 C0.33 1.65 0.66 3.3 1 5 C-0.65 4.67 -2.3 4.34 -4 4 C-4.103125 4.5775 -4.20625 5.155 -4.3125 5.75 C-5 8 -5 8 -6.5625 10 C-8.3890907 12.13084232 -8.3890907 12.13084232 -8 16 C-7.34 16.33 -6.68 16.66 -6 17 C-6.99 17 -7.98 17 -9 17 C-10.625 14.25 -10.625 14.25 -12 11 C-10.89053982 8.0257025 -9.13464451 5.68656381 -7.125 3.25 C-6.63257813 2.63640625 -6.14015625 2.0228125 -5.6328125 1.390625 C-4 0 -4 0 0 0 Z " fill="#34465C" transform="translate(154,51)"/>
<path d="M0 0 C0 3.31246505 -0.55697235 4.36108136 -2.25 7.125 C-2.87648437 8.18074219 -2.87648437 8.18074219 -3.515625 9.2578125 C-5.26426684 11.31016581 -6.37417256 11.629691 -9 12 C-9 12.99 -9 13.98 -9 15 C-9.66 15 -10.32 15 -11 15 C-11 15.66 -11 16.32 -11 17 C-11.94875 17.433125 -12.8975 17.86625 -13.875 18.3125 C-17.20041937 19.79302201 -17.20041937 19.79302201 -19 23 C-20.32 22.67 -21.64 22.34 -23 22 C-21.71416016 20.93072266 -21.71416016 20.93072266 -20.40234375 19.83984375 C-9.25947705 10.83345885 -9.25947705 10.83345885 0 0 Z " fill="#EA5A5A" transform="translate(234,472)"/>
<path d="M0 0 C1.58994497 2.82029713 2.25509 4.85672743 2.265625 8.08984375 C2.26949219 8.8686792 2.27335937 9.64751465 2.27734375 10.44995117 C2.26832031 11.27084229 2.25929688 12.0917334 2.25 12.9375 C2.24613281 13.77837158 2.24226563 14.61924316 2.23828125 15.4855957 C2.14243687 22.46825789 1.37824958 29.14566948 0 36 C-0.33 36 -0.66 36 -1 36 C-1.16631339 23.96999836 -0.6524986 12.0104862 0 0 Z " fill="#E47777" transform="translate(350,158)"/>
<path d="M0 0 C0.33 0 0.66 0 1 0 C0.67 4.95 0.34 9.9 0 15 C-0.66 15 -1.32 15 -2 15 C-2.33 16.32 -2.66 17.64 -3 19 C-13.23 19 -23.46 19 -34 19 C-34 18.67 -34 18.34 -34 18 C-24.43 17.67 -14.86 17.34 -5 17 C-2.14526941 8.59420383 -2.14526941 8.59420383 0 0 Z " fill="#E33D3A" transform="translate(335,50)"/>
<path d="M0 0 C-7.3741027 6.14508559 -18.42831454 11 -28 11 C-28 10.34 -28 9.68 -28 9 C-26.02 9 -24.04 9 -22 9 C-22 8.34 -22 7.68 -22 7 C-21.01 7 -20.02 7 -19 7 C-19 6.34 -19 5.68 -19 5 C-14.545 4.505 -14.545 4.505 -10 4 C-9.67 3.01 -9.34 2.02 -9 1 C-6.03421164 -0.16513114 -3.15436364 -0.08762121 0 0 Z " fill="#E9696A" transform="translate(230,560)"/>
<path d="M0 0 C1 2 1 2 0.3125 4.375 C-1.10916729 7.21833459 -2.57792728 8.95637614 -5 11 C-5.66 11 -6.32 11 -7 11 C-7 12.98 -7 14.96 -7 17 C-7.99 17.33 -8.98 17.66 -10 18 C-11.20882096 20.00016466 -11.20882096 20.00016466 -12 22 C-12.33 21.01 -12.66 20.02 -13 19 C-11.87510995 16.7710512 -10.72615815 14.77161437 -9.375 12.6875 C-9.00761719 12.10589111 -8.64023438 11.52428223 -8.26171875 10.92504883 C-5.75769856 7.0169103 -3.12824063 3.42151319 0 0 Z " fill="#EC7274" transform="translate(132,250)"/>
<path d="M0 0 C1.65 0 3.3 0 5 0 C5 3.72038015 4.09675609 4.44902879 1.6875 7.1875 C1.07261719 7.90292969 0.45773438 8.61835937 -0.17578125 9.35546875 C-2 11 -2 11 -5 11 C-5.1875 7.625 -5.1875 7.625 -5 4 C-4.01 3.34 -3.02 2.68 -2 2 C-1.67 2.66 -1.34 3.32 -1 4 C-0.67 2.68 -0.34 1.36 0 0 Z " fill="#213852" transform="translate(140,43)"/>
<path d="M0 0 C0 0.33 0 0.66 0 1 C-1.98 1 -3.96 1 -6 1 C-6.33 1.99 -6.66 2.98 -7 4 C-9.76366247 5.05086948 -12.39503741 5.11860688 -15.328125 5.09765625 C-16.12734375 5.09443359 -16.9265625 5.09121094 -17.75 5.08789062 C-18.575 5.07951172 -19.4 5.07113281 -20.25 5.0625 C-21.09046875 5.05798828 -21.9309375 5.05347656 -22.796875 5.04882812 C-24.86461401 5.03707961 -26.93231624 5.01914522 -29 5 C-25.1942123 2.69649692 -21.06622607 2.11063505 -16.75 1.375 C-16.02425781 1.2409375 -15.29851562 1.106875 -14.55078125 0.96875 C-9.63304771 0.10968068 -4.99096559 -0.12420955 0 0 Z " fill="#EA6463" transform="translate(224,208)"/>
<path d="M0 0 C0.99 0 1.98 0 3 0 C1.41438362 3.85593074 -1.06509954 6.33216291 -4 9.25 C-4.886875 10.14203125 -5.77375 11.0340625 -6.6875 11.953125 C-9 14 -9 14 -11 14 C-11.1875 11.625 -11.1875 11.625 -11 9 C-8 7 -8 7 -4 7 C-4 5.68 -4 4.36 -4 3 C-3.34 3 -2.68 3 -2 3 C-1.67 2.34 -1.34 1.68 -1 1 C-0.67 0.67 -0.34 0.34 0 0 Z " fill="#EE6162" transform="translate(325,242)"/>
<path d="M0 0 C1.65 0.33 3.3 0.66 5 1 C2.69 6.94 0.38 12.88 -2 19 C-2.33 19 -2.66 19 -3 19 C-2.67 15.37 -2.34 11.74 -2 8 C-1.34 8 -0.68 8 0 8 C-0.66 6.02 -1.32 4.04 -2 2 C-1.34 1.34 -0.68 0.68 0 0 Z " fill="#EF5255" transform="translate(155,345)"/>
<path d="M0 0 C3.1875 -0.3125 3.1875 -0.3125 6 0 C6 0.66 6 1.32 6 2 C8.64 1.67 11.28 1.34 14 1 C14.33 1.66 14.66 2.32 15 3 C8.88019467 4.40454548 3.28260706 5.23268915 -3 5 C-1.875 2.5 -1.875 2.5 0 0 Z " fill="#12263D" transform="translate(31,85)"/>
<path d="M0 0 C0.66 0 1.32 0 2 0 C3.125 2.3125 3.125 2.3125 4 5 C1.71973999 8.42039001 1.6132423 8.12406247 -2 9 C-3.73026102 10.47890069 -3.73026102 10.47890069 -5 12 C-5.66 10.68 -6.32 9.36 -7 8 C-6.5875 7.608125 -6.175 7.21625 -5.75 6.8125 C-3.86346813 4.92693097 -3.86346813 4.92693097 -1.9375 2.3125 C-0.9784375 1.1678125 -0.9784375 1.1678125 0 0 Z " fill="#0A2443" transform="translate(143,36)"/>
<path d="M0 0 C1.65 0 3.3 0 5 0 C-0.30412324 5.83453556 -6.85315517 10.64940069 -14 14 C-11.86135987 9.72271973 -10.34150529 8.71375209 -6 7 C-5.11306697 4.95894361 -5.11306697 4.95894361 -5 3 C-4.34 3 -3.68 3 -3 3 C-2.67 2.34 -2.34 1.68 -2 1 C-2 1.66 -2 2.32 -2 3 C-1.34 3 -0.68 3 0 3 C0 2.01 0 1.02 0 0 Z " fill="#EC696A" transform="translate(393,73)"/>
<path d="M0 0 C0.33 0 0.66 0 1 0 C1.33 2.31 1.66 4.62 2 7 C1.34 7 0.68 7 0 7 C0.33 7.99 0.66 8.98 1 10 C-1.64 11.98 -4.28 13.96 -7 16 C-7.66 15.67 -8.32 15.34 -9 15 C-8.43410156 14.16855469 -7.86820313 13.33710938 -7.28515625 12.48046875 C-6.55167969 11.39378906 -5.81820312 10.30710937 -5.0625 9.1875 C-4.33160156 8.10855469 -3.60070312 7.02960938 -2.84765625 5.91796875 C-0.90007384 3.10079982 -0.90007384 3.10079982 0 0 Z " fill="#ED6162" transform="translate(245,455)"/>
<path d="M0 0 C4 0 4 0 5.5 1.4375 C5.995 1.953125 6.49 2.46875 7 3 C8.32158127 3.37724241 9.65525832 3.71617133 11 4 C12.09644404 9.94457613 12.41029848 13.67993436 9 19 C8.34 19 7.68 19 7 19 C7.99 15.04 8.98 11.08 10 7 C7.525 6.01 7.525 6.01 5 5 C2.1875 2.375 2.1875 2.375 0 0 Z " fill="#EA6E6C" transform="translate(311,87)"/>
<path d="M0 0 C0.33 0.66 0.66 1.32 1 2 C0.34 2 -0.32 2 -1 2 C-1.26683594 2.72574219 -1.53367187 3.45148437 -1.80859375 4.19921875 C-2.99364672 6.98506458 -4.37139441 9.30700449 -6.0625 11.8125 C-6.58972656 12.60269531 -7.11695313 13.39289062 -7.66015625 14.20703125 C-8.10230469 14.79871094 -8.54445313 15.39039063 -9 16 C-9.33 16 -9.66 16 -10 16 C-10.25 12.6875 -10.25 12.6875 -10 9 C-8.0625 7.25 -8.0625 7.25 -6 6 C-5.67 5.01 -5.34 4.02 -5 3 C-4.34 3 -3.68 3 -3 3 C-3 2.34 -3 1.68 -3 1 C-2.01 0.67 -1.02 0.34 0 0 Z " fill="#F0797B" transform="translate(276,514)"/>
<path d="M0 0 C2.475 0.99 2.475 0.99 5 2 C4.01 2.495 4.01 2.495 3 3 C2.67 3.99 2.34 4.98 2 6 C1.34 6 0.68 6 0 6 C-0.33 6.99 -0.66 7.98 -1 9 C-3.0625 10.6875 -3.0625 10.6875 -5 12 C-5.625 9.6875 -5.625 9.6875 -6 7 C-5.34 6.01 -4.68 5.02 -4 4 C-3.01 4 -2.02 4 -1 4 C-0.67 2.68 -0.34 1.36 0 0 Z " fill="#F14D4A" transform="translate(168,329)"/>
<path d="M0 0 C0.33 0.66 0.66 1.32 1 2 C0.67 2.66 0.34 3.32 0 4 C0.66 4.33 1.32 4.66 2 5 C-0.53645881 8.10011632 -3.15184135 9.0575938 -7 10 C-8.32 9.67 -9.64 9.34 -11 9 C-7.37 6.03 -3.74 3.06 0 0 Z " fill="#F0504F" transform="translate(156,229)"/>
<path d="M0 0 C3.00617269 3.00617269 2.59585316 5.82381598 3 10 C-2.08938811 8.40956621 -5.87456643 5.2553049 -10 2 C-9.34 1.67 -8.68 1.34 -8 1 C-5.64018187 1.93578995 -3.30368736 2.93347808 -1 4 C-0.67 2.68 -0.34 1.36 0 0 Z " fill="#E66969" transform="translate(379,128)"/>
<path d="M0 0 C3.63 0 7.26 0 11 0 C8.10099272 2.89900728 4.71186605 3.01837802 0.8125 3.6875 C-0.3022168 3.90116211 -0.3022168 3.90116211 -1.43945312 4.11914062 C-6.27339777 4.97069441 -10.18183973 4.95086871 -15 4 C-15 3.67 -15 3.34 -15 3 C-10.05 2.67 -5.1 2.34 0 2 C0 1.34 0 0.68 0 0 Z " fill="#E96665" transform="translate(191,571)"/>
<path d="M0 0 C5.36770045 6.44124054 7.84158668 14.02041138 10 22 C9.34 22.66 8.68 23.32 8 24 C7.51891725 22.58398286 7.04021859 21.16715563 6.5625 19.75 C6.29566406 18.96109375 6.02882813 18.1721875 5.75390625 17.359375 C5 15 5 15 4.49609375 12.78125 C4.14943443 10.88379246 4.14943443 10.88379246 2.5 9.75 C0.0451213 6.88597485 0.30301288 3.69675715 0 0 Z " fill="#EC7172" transform="translate(273,389)"/>
<path d="M0 0 C0.66 0 1.32 0 2 0 C2.30873438 5.01693365 1.26671727 8.69319924 -0.5 13.375 C-0.73847656 14.01566406 -0.97695313 14.65632812 -1.22265625 15.31640625 C-1.80641312 16.88087465 -2.40199724 18.44092137 -3 20 C-3.33 20 -3.66 20 -4 20 C-4 17.03 -4 14.06 -4 11 C-3.34 11 -2.68 11 -2 11 C-2.061875 9.1128125 -2.061875 9.1128125 -2.125 7.1875 C-2.2390374 3.70935927 -2.05925681 3.08888522 0 0 Z " fill="#E96060" transform="translate(347,195)"/>
<path d="M0 0 C0.66 0.66 1.32 1.32 2 2 C0.35293322 4.37909647 -0.54996339 5.53772519 -3 7 C-7.32749391 7.74395174 -11.6141261 7.92936367 -16 8 C-16 7.67 -16 7.34 -16 7 C-14.35 7 -12.7 7 -11 7 C-11 6.34 -11 5.68 -11 5 C-10.21625 4.87625 -9.4325 4.7525 -8.625 4.625 C-5.85942178 4.20882007 -5.85942178 4.20882007 -4 2 C-2.68252676 1.30251417 -1.35085807 0.63040043 0 0 Z " fill="#485869" transform="translate(107,56)"/>
<path d="M0 0 C0.33 0 0.66 0 1 0 C2.27870002 5.69602737 1.76677133 8.86171038 -1 14 C-2.5625 15.9375 -2.5625 15.9375 -4 17 C-4.66 17 -5.32 17 -6 17 C-4.13236819 11.27789404 -2.14710968 5.62338249 0 0 Z " fill="#EB6061" transform="translate(259,424)"/>
<path d="M0 0 C0.33 0 0.66 0 1 0 C1.2493357 1.60115576 1.47378648 3.20620159 1.6875 4.8125 C1.81511719 5.70582031 1.94273437 6.59914063 2.07421875 7.51953125 C2 10 2 10 0.625 11.5625 C0.08875 12.036875 -0.4475 12.51125 -1 13 C-1.98628417 15.03077684 -1.98628417 15.03077684 -2.6875 17.1875 C-2.93886719 17.90292969 -3.19023437 18.61835937 -3.44921875 19.35546875 C-3.63097656 19.89816406 -3.81273437 20.44085938 -4 21 C-4.66 21 -5.32 21 -6 21 C-4.29977612 13.87352969 -2.42080258 6.9165788 0 0 Z " fill="#ED5354" transform="translate(317,106)"/>
<path d="M0 0 C0.33 0 0.66 0 1 0 C1.6875 3.3125 1.6875 3.3125 2 7 C0.5625 8.9375 0.5625 8.9375 -1 10 C0.32 11.32 1.64 12.64 3 14 C2.2575 13.814375 1.515 13.62875 0.75 13.4375 C-1.94990963 13.00796892 -3.44631077 13.14877026 -6 14 C-4.16508812 9.25981099 -2.08058541 4.63586749 0 0 Z " fill="#EE6F6C" transform="translate(252,441)"/>
<path d="M0 0 C-4.72786963 3.72943753 -9.0822532 3.35415147 -14.8125 3.1875 C-15.69615234 3.17396484 -16.57980469 3.16042969 -17.49023438 3.14648438 C-19.66042023 3.11129217 -21.83029033 3.05748985 -24 3 C-24 2.67 -24 2.34 -24 2 C-20.75198175 1.46626918 -17.50138509 0.95028732 -14.25 0.4375 C-13.32960938 0.28603516 -12.40921875 0.13457031 -11.4609375 -0.02148438 C-10.12675781 -0.2293457 -10.12675781 -0.2293457 -8.765625 -0.44140625 C-7.94868164 -0.57232666 -7.13173828 -0.70324707 -6.29003906 -0.83813477 C-3.93889793 -1.00431883 -2.23573504 -0.70259545 0 0 Z " fill="#556574" transform="translate(117,89)"/>
<path d="M0 0 C-0.33 1.32 -0.66 2.64 -1 4 C-1.99 4 -2.98 4 -4 4 C-4.33 5.65 -4.66 7.3 -5 9 C-7.31 8.34 -9.62 7.68 -12 7 C-11.3125 5.0625 -11.3125 5.0625 -10 3 C-7.5625 2.375 -7.5625 2.375 -5 2 C-2 0 -2 0 0 0 Z " fill="#1B3552" transform="translate(141,38)"/>
<path d="M0 0 C0 2 0 2 -1.125 3.625 C-3.75887944 5.55651159 -5.81916956 5.21205536 -9 5 C-9.33 6.32 -9.66 7.64 -10 9 C-12.31 9 -14.62 9 -17 9 C-12.7976162 5.21785458 -5.90556785 0 0 0 Z " fill="#ED6D70" transform="translate(174,220)"/>
<path d="M0 0 C1.98 0 3.96 0 6 0 C6.33 0.66 6.66 1.32 7 2 C4.69 1.67 2.38 1.34 0 1 C0 0.67 0 0.34 0 0 Z M2 2 C2.99 2.33 3.98 2.66 5 3 C5.33 5.31 5.66 7.62 6 10 C8.31 10.33 10.62 10.66 13 11 C13 11.33 13 11.66 13 12 C9.37 12 5.74 12 2 12 C2 8.66666667 2 5.33333333 2 2 Z " fill="#1E3550" transform="translate(62,74)"/>
<path d="M0 0 C-1.26941497 3.91402949 -2.51167694 5.79072873 -6 8 C-6.061875 7.38125 -6.12375 6.7625 -6.1875 6.125 C-6.828919 3.72238859 -6.828919 3.72238859 -9.5625 2.75 C-10.366875 2.5025 -11.17125 2.255 -12 2 C-12 1.67 -12 1.34 -12 1 C-7.93631321 0.22596442 -4.13574827 -0.0984702 0 0 Z " fill="#596979" transform="translate(121,41)"/>
<path d="M0 0 C2.40118527 2.40118527 2.75220861 4.05496042 3.625 7.3125 C3.88539063 8.25738281 4.14578125 9.20226562 4.4140625 10.17578125 C4.97479648 12.87851902 5.1101876 15.25031848 5 18 C4.34 18 3.68 18 3 18 C2.690625 17.030625 2.38125 16.06125 2.0625 15.0625 C1.30476658 12.15934208 1.30476658 12.15934208 0 11 C-0.07226502 9.14712498 -0.0838122 7.29166122 -0.0625 5.4375 C-0.05347656 4.42558594 -0.04445313 3.41367187 -0.03515625 2.37109375 C-0.02355469 1.58863281 -0.01195312 0.80617188 0 0 Z " fill="#EA6466" transform="translate(285,418)"/>
<path d="M0 0 C-1.95519384 1.17192047 -3.9142539 2.3373929 -5.875 3.5 C-6.96554688 4.1496875 -8.05609375 4.799375 -9.1796875 5.46875 C-12 7 -12 7 -14 7 C-13.67 5.35 -13.34 3.7 -13 2 C-11.5882217 1.46605821 -10.17029756 0.94834896 -8.75 0.4375 C-7.96109375 0.14746094 -7.1721875 -0.14257812 -6.359375 -0.44140625 C-3.80896548 -1.04522837 -2.44677771 -0.8473932 0 0 Z " fill="#EC6468" transform="translate(199,314)"/>
<path d="M0 0 C-2.71939459 1.4576935 -5.24754273 2.42442664 -8.25 3.125 C-9.4875 3.41375 -10.725 3.7025 -12 4 C-12 3.34 -12 2.68 -12 2 C-13.010625 2.350625 -14.02125 2.70125 -15.0625 3.0625 C-18.92337378 4.1892448 -22.05394586 3.80531717 -26 3 C-26 2.67 -26 2.34 -26 2 C-17.26047454 0.55203128 -8.86088167 -0.29211698 0 0 Z " fill="#5C6A7B" transform="translate(94,71)"/>
<path d="M0 0 C0.99386719 0.00902344 1.98773438 0.01804688 3.01171875 0.02734375 C4.15060547 0.04474609 4.15060547 0.04474609 5.3125 0.0625 C5.3125 1.0525 5.3125 2.0425 5.3125 3.0625 C0.6925 3.0625 -3.9275 3.0625 -8.6875 3.0625 C-8.6875 2.4025 -8.6875 1.7425 -8.6875 1.0625 C-5.53819107 0.01273036 -3.29935544 -0.03881595 0 0 Z " fill="#3E4D62" transform="translate(146.6875,193.9375)"/>
<path d="M0 0 C2.60607392 0.61778047 5.20965697 1.24387211 7.8125 1.875 C8.55048828 2.04902344 9.28847656 2.22304688 10.04882812 2.40234375 C13.49717037 3.24492511 16.01928362 4.01285575 19 6 C14.83861737 6.08159574 11.0527516 5.98248524 7 5 C7 4.34 7 3.68 7 3 C5.02 3 3.04 3 1 3 C0.67 2.01 0.34 1.02 0 0 Z " fill="#E75555" transform="translate(50,510)"/>
<path d="M0 0 C8.91 0 17.82 0 27 0 C27 0.66 27 1.32 27 2 C24.5 3.625 24.5 3.625 22 5 C22 3.68 22 2.36 22 1 C14.74 1 7.48 1 0 1 C0 0.67 0 0.34 0 0 Z " fill="#E27B79" transform="translate(378,67)"/>
<path d="M0 0 C1 4 1 4 -0.75 7.25 C-1.4925 8.1575 -2.235 9.065 -3 10 C-6 10 -6 10 -8 9 C-5.36 6.03 -2.72 3.06 0 0 Z " fill="#253850" transform="translate(128,45)"/>
<path d="M0 0 C0.66 0 1.32 0 2 0 C1.74322411 1.75211782 1.46897047 3.50167936 1.1875 5.25 C1.03667969 6.22453125 0.88585937 7.1990625 0.73046875 8.203125 C-0.03218264 11.12322338 -1.03774101 12.74205815 -3 15 C-3.33 12.36 -3.66 9.72 -4 7 C-3.01 6.67 -2.02 6.34 -1 6 C-0.67 4.02 -0.34 2.04 0 0 Z " fill="#F14949" transform="translate(287,483)"/>
<path d="M0 0 C-1.33333333 0.66666667 -2.66666667 1.33333333 -4 2 C-5.010625 2.515625 -6.02125 3.03125 -7.0625 3.5625 C-10 5 -10 5 -13 6 C-13.66 5.67 -14.32 5.34 -15 5 C-14.375 3.0625 -14.375 3.0625 -13 1 C-8.70090324 -0.19974793 -4.44057626 -0.08881153 0 0 Z " fill="#4B5B70" transform="translate(97,24)"/>
<path d="M0 0 C1.98 0 3.96 0 6 0 C2.70360316 4.26592532 -0.25701349 7.25960779 -5 10 C-5.66 10 -6.32 10 -7 10 C-6.67 8.68 -6.34 7.36 -6 6 C-4.02 5.67 -2.04 5.34 0 5 C0 3.35 0 1.7 0 0 Z " fill="#EA6867" transform="translate(243,547)"/>
<path d="M0 0 C0.99 1.32 1.98 2.64 3 4 C2.34 5.32 1.68 6.64 1 8 C0.2575 7.95875 -0.485 7.9175 -1.25 7.875 C-4.11960046 8.00543638 -5.52093306 8.6545235 -8 10 C-7.59007812 9.52949219 -7.18015625 9.05898438 -6.7578125 8.57421875 C-6.21898437 7.95160156 -5.68015625 7.32898437 -5.125 6.6875 C-4.59132812 6.07261719 -4.05765625 5.45773438 -3.5078125 4.82421875 C-1.8359553 2.86501788 -1.8359553 2.86501788 0 0 Z " fill="#455870" transform="translate(59,54)"/>
<path d="M0 0 C0.99 1.32 1.98 2.64 3 4 C1.63016497 7.16115776 1.0109362 7.9927092 -2 10 C-3.00168531 11.94832935 -3.00168531 11.94832935 -3.6875 14.125 C-3.93886719 14.84945312 -4.19023437 15.57390625 -4.44921875 16.3203125 C-4.63097656 16.87460937 -4.81273437 17.42890625 -5 18 C-6.1351555 14.5945335 -5.84899821 13.68276913 -4.75 10.375 C-4.49734375 9.57835937 -4.2446875 8.78171875 -3.984375 7.9609375 C-3 6 -3 6 0 5 C0 3.35 0 1.7 0 0 Z " fill="#EF5455" transform="translate(342,32)"/>
<path d="M0 0 C1.65 0 3.3 0 5 0 C5 0.66 5 1.32 5 2 C2.6640625 3.7265625 2.6640625 3.7265625 -0.375 5.625 C-1.37273437 6.25664062 -2.37046875 6.88828125 -3.3984375 7.5390625 C-6 9 -6 9 -8 9 C-8 7.68 -8 6.36 -8 5 C-7.236875 4.855625 -6.47375 4.71125 -5.6875 4.5625 C-2.91827092 4.0367406 -2.91827092 4.0367406 0 3 C0 2.01 0 1.02 0 0 Z " fill="#EA6468" transform="translate(292,268)"/>
<path d="M0 0 C0.33 0.99 0.66 1.98 1 3 C-0.09779824 4.15193623 -1.20349446 5.29634937 -2.3125 6.4375 C-2.92738281 7.07558594 -3.54226562 7.71367187 -4.17578125 8.37109375 C-6 10 -6 10 -9 11 C-8.6875 9.0625 -8.6875 9.0625 -8 7 C-7.01 6.67 -6.02 6.34 -5 6 C-4.3162955 4.67532254 -3.65035814 3.34136367 -3 2 C-2.01 1.34 -1.02 0.68 0 0 Z " fill="#3C4B60" transform="translate(186,175)"/>
<path d="M0 0 C0.33 0 0.66 0 1 0 C1.33 1.98 1.66 3.96 2 6 C3.32 6.33 4.64 6.66 6 7 C3.69 8.65 1.38 10.3 -1 12 C-1.66 11.34 -2.32 10.68 -3 10 C-2.01 6.7 -1.02 3.4 0 0 Z " fill="#E87A7D" transform="translate(310,127)"/>
<path d="M0 0 C0.66 0.33 1.32 0.66 2 1 C1.625 3.4375 1.625 3.4375 1 6 C0.01 6.495 0.01 6.495 -1 7 C-1.33 7.66 -1.66 8.32 -2 9 C-4.0625 9.625 -4.0625 9.625 -6 10 C-6 9.01 -6 8.02 -6 7 C-5.34 6.67 -4.68 6.34 -4 6 C-3.34444881 3.47266765 -3.34444881 3.47266765 -3 1 C-2.01 1.33 -1.02 1.66 0 2 C0 1.34 0 0.68 0 0 Z " fill="#0C2541" transform="translate(110,48)"/>
<path d="M0 0 C3.56720996 2.67540747 6.41126424 5.35659412 9 9 C9 9.66 9 10.32 9 11 C6 10 6 10 4 8 C3.01 8.495 3.01 8.495 2 9 C0 3.375 0 3.375 0 0 Z " fill="#46576A" transform="translate(234,332)"/>
<path d="M0 0 C7.26 0 14.52 0 22 0 C21.67 1.65 21.34 3.3 21 5 C20.01 5 19.02 5 18 5 C18.33 4.01 18.66 3.02 19 2 C12.73 1.67 6.46 1.34 0 1 C0 0.67 0 0.34 0 0 Z " fill="#E53D3E" transform="translate(378,68)"/>
<path d="M0 0 C0.68359375 1.640625 0.68359375 1.640625 1 4 C-0.21484375 6.796875 -0.21484375 6.796875 -1.9375 9.75 C-2.50339844 10.73484375 -3.06929688 11.7196875 -3.65234375 12.734375 C-4.09707031 13.48203125 -4.54179687 14.2296875 -5 15 C-6 12 -6 12 -6 9 C-5.34 8.67 -4.68 8.34 -4 8 C-3.67 6.845 -3.34 5.69 -3 4.5 C-2.67 3.345 -2.34 2.19 -2 1 C-1.34 0.67 -0.68 0.34 0 0 Z " fill="#E96D6C" transform="translate(283,498)"/>
<path d="M0 0 C0.33 0 0.66 0 1 0 C1.50368582 6.79975853 0.09684674 11.91933012 -3 18 C-3.66 18.66 -4.32 19.32 -5 20 C-3.56390017 13.26137773 -1.85991713 6.63370443 0 0 Z " fill="#E77376" transform="translate(265,404)"/>
<path d="M0 0 C0.99 0.33 1.98 0.66 3 1 C3 1.99 3 2.98 3 4 C3.61875 4.20625 4.2375 4.4125 4.875 4.625 C7.84653645 6.54775888 8.13024659 8.66594527 9 12 C8.34 12.66 7.68 13.32 7 14 C5.82807953 12.04480616 4.6626071 10.0857461 3.5 8.125 C2.8503125 7.03445313 2.200625 5.94390625 1.53125 4.8203125 C0 2 0 2 0 0 Z " fill="#EC6869" transform="translate(120,352)"/>
<path d="M0 0 C1.32 0 2.64 0 4 0 C4 0.66 4 1.32 4 2 C4.99 2 5.98 2 7 2 C7 2.66 7 3.32 7 4 C8.98 3.67 10.96 3.34 13 3 C12.34 4.65 11.68 6.3 11 8 C9.53686228 7.23832543 8.07963339 6.46529293 6.625 5.6875 C5.81289063 5.25824219 5.00078125 4.82898438 4.1640625 4.38671875 C2 3 2 3 0 0 Z " fill="#EF6263" transform="translate(300,79)"/>
<path d="M0 0 C1.1446875 0.12375 1.1446875 0.12375 2.3125 0.25 C0.41269993 3.76463012 -1.25385317 6.14550678 -4.6875 8.25 C-5.3475 8.25 -6.0075 8.25 -6.6875 8.25 C-5.9168107 3.93413993 -4.72992724 0.43999323 0 0 Z " fill="#34475C" transform="translate(139.6875,33.75)"/>
<path d="M0 0 C0.66 0 1.32 0 2 0 C2.103125 1.03125 2.20625 2.0625 2.3125 3.125 C2.99127797 6.95083945 4.11158795 9.63370025 6 13 C5.01 14.485 5.01 14.485 4 16 C3.13444052 13.90049414 2.28288723 11.7952093 1.4375 9.6875 C0.72400391 7.92986328 0.72400391 7.92986328 -0.00390625 6.13671875 C-1 3 -1 3 0 0 Z " fill="#E9605F" transform="translate(115,336)"/>
<path d="M0 0 C0.33 0 0.66 0 1 0 C0.67 4.95 0.34 9.9 0 15 C-0.66 15 -1.32 15 -2 15 C-2 15.66 -2 16.32 -2 17 C-2.66 17 -3.32 17 -4 17 C-3.27246734 13.19281452 -2.38723428 9.44514431 -1.4375 5.6875 C-1.16808594 4.61886719 -0.89867187 3.55023438 -0.62109375 2.44921875 C-0.41613281 1.64097656 -0.21117187 0.83273438 0 0 Z " fill="#E96A6B" transform="translate(335,50)"/>
<path d="M0 0 C2.52588702 2.36292656 3.88820837 3.66462511 5 7 C3.68 7 2.36 7 1 7 C0.67 6.01 0.34 5.02 0 4 C-2.00016466 2.79117904 -2.00016466 2.79117904 -4 2 C-2.68 1.34 -1.36 0.68 0 0 Z " fill="#0E2747" transform="translate(55,63)"/>
<path d="M0 0 C0 3.31246505 -0.55697235 4.36108136 -2.25 7.125 C-2.87648437 8.18074219 -2.87648437 8.18074219 -3.515625 9.2578125 C-5.26426684 11.31016581 -6.37417256 11.629691 -9 12 C-7.55575365 8.76138697 -5.74227753 6.38030837 -3.375 3.75 C-2.74335938 3.04359375 -2.11171875 2.3371875 -1.4609375 1.609375 C-0.97882813 1.07828125 -0.49671875 0.5471875 0 0 Z " fill="#E85E61" transform="translate(234,472)"/>
<path d="M0 0 C1.485 0.99 1.485 0.99 3 2 C3 2.99 3 3.98 3 5 C3.66 5 4.32 5 5 5 C6.75 7.25 6.75 7.25 8 10 C7.1875 12.3125 7.1875 12.3125 6 14 C5.9175 13.21625 5.835 12.4325 5.75 11.625 C5.5025 10.75875 5.255 9.8925 5 9 C4.01 8.566875 4.01 8.566875 3 8.125 C2.34 7.75375 1.68 7.3825 1 7 C0.25 3.375 0.25 3.375 0 0 Z " fill="#515F76" transform="translate(250,353)"/>
<path d="M0 0 C1 2 1 2 0.0625 5.125 C-0.288125 6.07375 -0.63875 7.0225 -1 8 C-1.99 7.67 -2.98 7.34 -4 7 C-4 7.99 -4 8.98 -4 10 C-5.98 10.66 -7.96 11.32 -10 12 C-9.34 11.01 -8.68 10.02 -8 9 C-7.34 9 -6.68 9 -6 9 C-5.7525 8.443125 -5.505 7.88625 -5.25 7.3125 C-3.78393985 4.60028873 -1.97010529 2.36412635 0 0 Z " fill="#EF7878" transform="translate(337,158)"/>
<path d="M0 0 C2.41734542 -0.08117951 4.83194949 -0.14056926 7.25 -0.1875 C7.93191406 -0.21263672 8.61382812 -0.23777344 9.31640625 -0.26367188 C12.59199289 -0.31137459 14.65348556 -0.21085076 17.484375 1.51171875 C17.98453125 2.00285156 18.4846875 2.49398437 19 3 C12.64780958 2.45118943 6.32126362 1.83488387 0 1 C0 0.67 0 0.34 0 0 Z " fill="#EA7171" transform="translate(130,573)"/>
<path d="M0 0 C1.32 0.33 2.64 0.66 4 1 C4 1.99 4 2.98 4 4 C5.32 3.67 6.64 3.34 8 3 C8 5.31 8 7.62 8 10 C4.71211176 6.88983545 2.16264012 3.98381075 0 0 Z " fill="#ED6464" transform="translate(36,512)"/>
<path d="M0 0 C3.3 0 6.6 0 10 0 C8 4 8 4 5 6 C4.67 5.01 4.34 4.02 4 3 C2.68 2.01 1.36 1.02 0 0 Z " fill="#535F71" transform="translate(159,17)"/>
<path d="M0 0 C4.95 0.99 4.95 0.99 10 2 C10 2.33 10 2.66 10 3 C8.02 3 6.04 3 4 3 C4.33 4.65 4.66 6.3 5 8 C2.27573689 5.64722731 1.1858237 3.37503669 0 0 Z " fill="#E77A7C" transform="translate(31,504)"/>
<path d="M0 0 C0.33 1.32 0.66 2.64 1 4 C0.34 4 -0.32 4 -1 4 C-1.061875 4.721875 -1.12375 5.44375 -1.1875 6.1875 C-2.24456647 9.84657625 -4.20550071 11.49211602 -7 14 C-6.5361167 9.82505033 -6.1386402 7.77648941 -3 5 C-1.96642853 3.35394174 -0.95939668 1.69036558 0 0 Z " fill="#EC6262" transform="translate(344,148)"/>
<path d="M0 0 C6.875 0.875 6.875 0.875 8 2 C8.04063832 3.66617115 8.042721 5.33388095 8 7 C7.01 6.67 6.02 6.34 5 6 C5 5.34 5 4.68 5 4 C4.360625 3.71125 3.72125 3.4225 3.0625 3.125 C1 2 1 2 0 0 Z " fill="#EF676A" transform="translate(61,539)"/>
<path d="M0 0 C1.125 3.75 1.125 3.75 0 6 C-0.7425 5.95875 -1.485 5.9175 -2.25 5.875 C-5.08758952 6.00398134 -6.58773938 6.57051222 -9 8 C-6.14723863 5.06799526 -3.34920216 2.35684596 0 0 Z " fill="#546679" transform="translate(184,331)"/>
<path d="M0 0 C0.66 0 1.32 0 2 0 C-0.89066059 9.59453303 -0.89066059 9.59453303 -4 13 C-3.814375 11.88625 -3.62875 10.7725 -3.4375 9.625 C-2.68319343 6.17431139 -2.68319343 6.17431139 -4 4 C-3.01 3.67 -2.02 3.34 -1 3 C-0.67 2.01 -0.34 1.02 0 0 Z " fill="#EB686A" transform="translate(341,215)"/>
<path d="M0 0 C0.99 0.495 0.99 0.495 2 1 C2.40044304 2.65182755 2.71479595 4.32442621 3 6 C3.63880913 8.67408475 4.32254113 11.33532844 5 14 C4.01 13.67 3.02 13.34 2 13 C0.34950283 8.56971812 -0.22973141 4.70949382 0 0 Z " fill="#E86767" transform="translate(368,94)"/>
<path d="M0 0 C1.65 0 3.3 0 5 0 C5 3 5 3 2.5 5.6875 C1.675 6.450625 0.85 7.21375 0 8 C-0.98120464 4.94736336 -0.98120464 3.05263664 0 0 Z " fill="#3D4F64" transform="translate(140,43)"/>
<path d="M0 0 C2 3 2 3 2 5 C2.99 5.33 3.98 5.66 5 6 C5.6875 8.0625 5.6875 8.0625 6 10 C2.2047869 8.50902342 0.38957269 6.24299151 -2 3 C-1.34 3 -0.68 3 0 3 C0 2.01 0 1.02 0 0 Z " fill="#F07272" transform="translate(52,526)"/>
<path d="M0 0 C2.31 0 4.62 0 7 0 C5.7260411 2.03833424 4.38938077 4.03852126 3 6 C2.34 6 1.68 6 1 6 C0 3 0 3 0 0 Z " fill="#F1605D" transform="translate(259,530)"/>
<path d="M0 0 C0.33 0 0.66 0 1 0 C1.08142927 1.7492214 1.13938541 3.49954542 1.1875 5.25 C1.23970703 6.71179688 1.23970703 6.71179688 1.29296875 8.203125 C0.96075202 11.37468742 0.11327721 12.67040307 -2 15 C-2.22577402 9.5814234 -1.46670113 5.22512279 0 0 Z " fill="#E86768" transform="translate(268,389)"/>
<path d="M0 0 C0.66 0.33 1.32 0.66 2 1 C1.21625 1.9075 0.4325 2.815 -0.375 3.75 C-1.93674027 5.6056633 -3.05701829 7.11720427 -4.125 9.3125 C-5 11 -5 11 -8 12 C-6.49087042 7.01987239 -3.44338151 3.75740058 0 0 Z " fill="#6E7B8C" transform="translate(73,37)"/>
<path d="M0 0 C0.66 0.33 1.32 0.66 2 1 C0.875 3 0.875 3 -1 5 C-4.1875 5.25 -4.1875 5.25 -7 5 C-7 4.34 -7 3.68 -7 3 C-4.69631264 1.93347808 -2.35981813 0.93578995 0 0 Z " fill="#E7524F" transform="translate(294,190)"/>
<path d="M0 0 C0.99 0.33 1.98 0.66 3 1 C2.67 2.65 2.34 4.3 2 6 C0.02 6 -1.96 6 -4 6 C-4 4 -4 4 -2 1.875 C-1.34 1.25625 -0.68 0.6375 0 0 Z " fill="#0C2440" transform="translate(62,80)"/>
<path d="M0 0 C0.66 0 1.32 0 2 0 C1.67 1.65 1.34 3.3 1 5 C0.34 5 -0.32 5 -1 5 C-1.66 6.32 -2.32 7.64 -3 9 C-3.33 8.01 -3.66 7.02 -4 6 C-2.1875 2.8125 -2.1875 2.8125 0 0 Z " fill="#E95355" transform="translate(123,263)"/>
<path d="M0 0 C0.33 0 0.66 0 1 0 C1.04898438 0.63808594 1.09796875 1.27617188 1.1484375 1.93359375 C1.22320312 2.75988281 1.29796875 3.58617187 1.375 4.4375 C1.44460937 5.26121094 1.51421875 6.08492188 1.5859375 6.93359375 C1.72257813 7.61550781 1.85921875 8.29742187 2 9 C2.66 9.33 3.32 9.66 4 10 C3.01 10 2.02 10 1 10 C-0.625 7.25 -0.625 7.25 -2 4 C-1.1875 1.625 -1.1875 1.625 0 0 Z " fill="#536C7D" transform="translate(144,58)"/>
<path d="M0 0 C-0.57344937 2.86724686 -0.8614515 3.8614515 -3 6 C-4.32 6 -5.64 6 -7 6 C-7 5.34 -7 4.68 -7 4 C-6.34 4 -5.68 4 -5 4 C-4.67 3.01 -4.34 2.02 -4 1 C-2 0 -2 0 0 0 Z " fill="#505E70" transform="translate(135,55)"/>
<path d="M0 0 C0.66 0 1.32 0 2 0 C2 3.63 2 7.26 2 11 C1.34 11 0.68 11 0 11 C-0.19406478 9.35492782 -0.38007935 7.70890406 -0.5625 6.0625 C-0.66691406 5.14597656 -0.77132813 4.22945313 -0.87890625 3.28515625 C-0.91886719 2.53105469 -0.95882813 1.77695312 -1 1 C-0.67 0.67 -0.34 0.34 0 0 Z " fill="#4F5E6B" transform="translate(260,374)"/>
<path d="M0 0 C2.475 0.99 2.475 0.99 5 2 C4.01 2.495 4.01 2.495 3 3 C2.67 3.99 2.34 4.98 2 6 C1.34 6 0.68 6 0 6 C-0.33 6.66 -0.66 7.32 -1 8 C-1.04241723 5.66705225 -1.04092937 3.33297433 -1 1 C-0.67 0.67 -0.34 0.34 0 0 Z " fill="#F06A67" transform="translate(168,329)"/>
<path d="M0 0 C2.31 0 4.62 0 7 0 C3.63576723 2.96052484 0.30840713 3.92289822 -4 5 C-3.67 4.01 -3.34 3.02 -3 2 C-2.01 2 -1.02 2 0 2 C0 1.34 0 0.68 0 0 Z " fill="#E96467" transform="translate(268,281)"/>
<path d="M0 0 C1 3 1 3 0.00390625 5.48046875 C-0.47175781 6.37378906 -0.94742188 7.26710937 -1.4375 8.1875 C-1.91058594 9.08855469 -2.38367188 9.98960937 -2.87109375 10.91796875 C-3.24363281 11.60503906 -3.61617187 12.29210937 -4 13 C-4.33 13 -4.66 13 -5 13 C-5 11.35 -5 9.7 -5 8 C-4.34 8 -3.68 8 -3 8 C-3 6.68 -3 5.36 -3 4 C-2.34 4 -1.68 4 -1 4 C-0.67 2.68 -0.34 1.36 0 0 Z " fill="#7B8997" transform="translate(197,157)"/>
<path d="M0 0 C3.96 0 7.92 0 12 0 C12 1.32 12 2.64 12 4 C11.67 3.34 11.34 2.68 11 2 C8.41394668 1.5316735 8.41394668 1.5316735 5.4375 1.375 C3.91962891 1.26285156 3.91962891 1.26285156 2.37109375 1.1484375 C1.19740234 1.07496094 1.19740234 1.07496094 0 1 C0 0.67 0 0.34 0 0 Z " fill="#636E80" transform="translate(127,66)"/>
<path d="M0 0 C2.97 0.495 2.97 0.495 6 1 C5.34 2.32 4.68 3.64 4 5 C2.68 4.67 1.36 4.34 0 4 C0 2.68 0 1.36 0 0 Z " fill="#122C4A" transform="translate(150,55)"/>
<path d="M0 0 C-3.20336822 2.83374881 -5.78087253 3.5205537 -10 4 C-9.67 3.01 -9.34 2.02 -9 1 C-6.03421164 -0.16513114 -3.15436364 -0.08762121 0 0 Z " fill="#EA5F61" transform="translate(230,560)"/>
<path d="M0 0 C0.66 0.33 1.32 0.66 2 1 C1.71890887 2.64767247 1.42481474 4.29313145 1.125 5.9375 C0.96257812 6.85402344 0.80015625 7.77054687 0.6328125 8.71484375 C0.42398438 9.46894531 0.21515625 10.22304688 0 11 C-0.99 11.495 -0.99 11.495 -2 12 C-2.33 10.35 -2.66 8.7 -3 7 C-2.01 7 -1.02 7 0 7 C0 4.69 0 2.38 0 0 Z " fill="#566272" transform="translate(252,415)"/>
<path d="M0 0 C0.99 0.33 1.98 0.66 3 1 C2.01 4.3 1.02 7.6 0 11 C-0.33 11 -0.66 11 -1 11 C-0.67 7.37 -0.34 3.74 0 0 Z " fill="#ED6D6C" transform="translate(153,353)"/>
<path d="M0 0 C1.4540625 0.0309375 1.4540625 0.0309375 2.9375 0.0625 C2.256875 0.619375 1.57625 1.17625 0.875 1.75 C-0.0840625 2.8946875 -0.0840625 2.8946875 -1.0625 4.0625 C-0.92224801 6.76955512 -0.92224801 6.76955512 -0.0625 9.0625 C-0.7225 8.7325 -1.3825 8.4025 -2.0625 8.0625 C-2.79325648 5.7484378 -3.46388258 3.41421131 -4.0625 1.0625 C-3.0625 0.0625 -3.0625 0.0625 0 0 Z " fill="#576376" transform="translate(70.0625,93.9375)"/>
<path d="M0 0 C0.33 0 0.66 0 1 0 C1.34833144 4.87664009 0.41685712 7.77050005 -2 12 C-2.66 12 -3.32 12 -4 12 C-2.66666667 8 -1.33333333 4 0 0 Z " fill="#E25C5D" transform="translate(322,94)"/>
<path d="M0 0 C4.15882353 8.02058824 4.15882353 8.02058824 3.625 11.3125 C3.41875 11.869375 3.2125 12.42625 3 13 C2.67 11.35 2.34 9.7 2 8 C1.34 8 0.68 8 0 8 C0 5.36 0 2.72 0 0 Z " fill="#E87A79" transform="translate(355,54)"/>
<path d="M0 0 C0 3 0 3 -1 5 C-0.34 5.33 0.32 5.66 1 6 C-0.8125 7.0625 -0.8125 7.0625 -3 8 C-3.99 7.67 -4.98 7.34 -6 7 C-4.02 4.69 -2.04 2.38 0 0 Z " fill="#4E5F6F" transform="translate(85,54)"/>
<path d="M0 0 C3.65316671 1.24976756 4.78065836 1.67098753 7 5 C6.2575 4.814375 5.515 4.62875 4.75 4.4375 C2.05009037 4.00796892 0.55368923 4.14877026 -2 5 C-1.34 3.35 -0.68 1.7 0 0 Z " fill="#F55253" transform="translate(248,450)"/>
<path d="M0 0 C2.475 0.99 2.475 0.99 5 2 C4.67 3.98 4.34 5.96 4 8 C3.34 7.67 2.68 7.34 2 7 C1.26924352 4.6859378 0.59861742 2.35171131 0 0 Z " fill="#445469" transform="translate(93,160)"/>
<path d="M0 0 C1.32 1.65 2.64 3.3 4 5 C3.34 6.32 2.68 7.64 2 9 C1.34 9 0.68 9 0 9 C0 6.03 0 3.06 0 0 Z " fill="#475566" transform="translate(163,72)"/>
<path d="M0 0 C1.0625 1.8125 1.0625 1.8125 2 4 C1.67 4.99 1.34 5.98 1 7 C-0.98 7 -2.96 7 -5 7 C-3.35 4.69 -1.7 2.38 0 0 Z " fill="#4E5D72" transform="translate(46,68)"/>
<path d="M0 0 C4.29 0 8.58 0 13 0 C11.68 0.33 10.36 0.66 9 1 C8.67 1.66 8.34 2.32 8 3 C4.62537285 2.45276317 2.91765 1.9451 0 0 Z " fill="#4A596C" transform="translate(108,68)"/>
<path d="M0 0 C0.66 0 1.32 0 2 0 C2.33 0.99 2.66 1.98 3 3 C1.625 5 1.625 5 0 7 C-0.33 7.99 -0.66 8.98 -1 10 C-1.99 9.67 -2.98 9.34 -4 9 C-3.34 9 -2.68 9 -2 9 C-1.7834375 7.0509375 -1.7834375 7.0509375 -1.5625 5.0625 C-1.125 1.125 -1.125 1.125 0 0 Z " fill="#203954" transform="translate(149,62)"/>
<path d="M0 0 C1.32 0 2.64 0 4 0 C2.87548273 2.9719385 1.77706209 5.33440687 0 8 C-0.66 8 -1.32 8 -2 8 C-2 7.34 -2 6.68 -2 6 C-1.34 6 -0.68 6 0 6 C0 4.02 0 2.04 0 0 Z " fill="#5B667B" transform="translate(240,444)"/>
<path d="M0 0 C0.99 0 1.98 0 3 0 C3 0.66 3 1.32 3 2 C3.66 2.33 4.32 2.66 5 3 C5 4.98 5 6.96 5 9 C0.57142857 3.85714286 0.57142857 3.85714286 0 0 Z " fill="#415768" transform="translate(72,107)"/>
<path d="M0 0 C1.65 0 3.3 0 5 0 C4.67 0.66 4.34 1.32 4 2 C3.34 2 2.68 2 2 2 C1.71125 2.639375 1.4225 3.27875 1.125 3.9375 C0 6 0 6 -2 7 C-1.42415568 4.61435923 -0.77772405 2.33317216 0 0 Z " fill="#4B5B6D" transform="translate(60,67)"/>
<path d="M0 0 C0.33 0 0.66 0 1 0 C1.99 3.96 2.98 7.92 4 12 C3.01 12.495 3.01 12.495 2 13 C-0.24828052 8.50343896 -0.16682272 4.92127034 0 0 Z " fill="#E96C6B" transform="translate(351,41)"/>
<path d="M0 0 C0.99 0.33 1.98 0.66 3 1 C0.525 4.465 0.525 4.465 -2 8 C-2.66 6.68 -3.32 5.36 -4 4 C-2.68 3.67 -1.36 3.34 0 3 C0 2.01 0 1.02 0 0 Z " fill="#536477" transform="translate(157,27)"/>
<path d="M0 0 C0 0.66 0 1.32 0 2 C0.66 2 1.32 2 2 2 C1.34 3.32 0.68 4.64 0 6 C-0.33 5.34 -0.66 4.68 -1 4 C-1.99 3.67 -2.98 3.34 -4 3 C-4 2.34 -4 1.68 -4 1 C-2 0 -2 0 0 0 Z " fill="#233A56" transform="translate(162,20)"/>
<path d="M0 0 C2.97 0.33 5.94 0.66 9 1 C9.33 1.99 9.66 2.98 10 4 C8.72125 3.71125 7.4425 3.4225 6.125 3.125 C5.40570313 2.96257813 4.68640625 2.80015625 3.9453125 2.6328125 C2 2 2 2 0 0 Z " fill="#E86D68" transform="translate(103,564)"/>
<path d="M0 0 C2.97 0 5.94 0 9 0 C8.67 1.32 8.34 2.64 8 4 C2.25 2.25 2.25 2.25 0 0 Z " fill="#EC696A" transform="translate(84,556)"/>
<path d="M0 0 C0.33 0 0.66 0 1 0 C1.36923077 5.53846154 1.36923077 5.53846154 -0.5 7.875 C-1.2425 8.431875 -1.2425 8.431875 -2 9 C-2.125 5.625 -2.125 5.625 -2 2 C-1.34 1.34 -0.68 0.68 0 0 Z " fill="#EF5357" transform="translate(268,521)"/>
<path d="M0 0 C-2.57089417 2.11180592 -4.63060567 3.66306057 -8 4 C-8.66 3.34 -9.32 2.68 -10 2 C-6.49223216 0.39644899 -3.85645121 -0.22036864 0 0 Z " fill="#E85B5A" transform="translate(236,296)"/>
<path d="M0 0 C0.28875 0.61875 0.5775 1.2375 0.875 1.875 C1.93720042 4.13325765 1.93720042 4.13325765 4 6 C3.625 9.125 3.625 9.125 3 12 C0.60926555 8.17482487 0.44033448 4.40334476 0 0 Z " fill="#596679" transform="translate(90,148)"/>
<path d="M0 0 C0.33 0 0.66 0 1 0 C1.14285714 7.42857143 1.14285714 7.42857143 0 11 C-0.99 11 -1.98 11 -3 11 C-2.01 7.37 -1.02 3.74 0 0 Z " fill="#E97272" transform="translate(317,106)"/>
<path d="M0 0 C1.32 0.33 2.64 0.66 4 1 C4 1.33 4 1.66 4 2 C6.31 2.33 8.62 2.66 11 3 C11 3.33 11 3.66 11 4 C7.37 4 3.74 4 0 4 C0 2.68 0 1.36 0 0 Z " fill="#556A7F" transform="translate(64,82)"/>
<path d="M0 0 C1.258125 -0.04125 2.51625 -0.0825 3.8125 -0.125 C4.52019531 -0.14820313 5.22789063 -0.17140625 5.95703125 -0.1953125 C8 0 8 0 11 2 C6.99799622 3.60080151 3.95443764 2.29279692 0 1 C0 0.67 0 0.34 0 0 Z " fill="#EA7477" transform="translate(119,570)"/>
<path d="M0 0 C0.66 0 1.32 0 2 0 C1.34 3.63 0.68 7.26 0 11 C-0.33 11 -0.66 11 -1 11 C-1.0270043 9.54176788 -1.04639787 8.08339325 -1.0625 6.625 C-1.07410156 5.81289063 -1.08570313 5.00078125 -1.09765625 4.1640625 C-1 2 -1 2 0 0 Z " fill="#E96666" transform="translate(287,483)"/>
<path d="M0 0 C1.32 0.33 2.64 0.66 4 1 C4.625 2.875 4.625 2.875 5 5 C4.34 5.66 3.68 6.32 3 7 C0 2.25 0 2.25 0 0 Z " fill="#516574" transform="translate(201,464)"/>
<path d="M0 0 C1.65 0 3.3 0 5 0 C5.33 1.65 5.66 3.3 6 5 C5.01 5 4.02 5 3 5 C1.3125 2.5 1.3125 2.5 0 0 Z " fill="#4E6276" transform="translate(192,449)"/>
<path d="M0 0 C2.11180592 2.57089417 3.66306057 4.63060567 4 8 C3.34 8.66 2.68 9.32 2 10 C1.01 7.03 0.02 4.06 -1 1 C-0.67 0.67 -0.34 0.34 0 0 Z " fill="#EC5756" transform="translate(279,403)"/>
<path d="M0 0 C0.66 1.32 1.32 2.64 2 4 C1.01 4.99 0.02 5.98 -1 7 C-1 6.34 -1 5.68 -1 5 C-1.66 5 -2.32 5 -3 5 C-2.67 4.01 -2.34 3.02 -2 2 C-1.34 2 -0.68 2 0 2 C0 1.34 0 0.68 0 0 Z " fill="#3B4E66" transform="translate(174,339)"/>
<path d="M0 0 C2.31 1.98 4.62 3.96 7 6 C6.67 6.66 6.34 7.32 6 8 C4.68 7.67 3.36 7.34 2 7 C1.34 4.69 0.68 2.38 0 0 Z " fill="#5E6E7E" transform="translate(222,318)"/>
<path d="M0 0 C0.66 0.33 1.32 0.66 2 1 C1.34 2.32 0.68 3.64 0 5 C-1.98 5 -3.96 5 -6 5 C-2.25 1.125 -2.25 1.125 0 0 Z " fill="#485C72" transform="translate(204,318)"/>
<path d="M0 0 C-0.639375 0.12375 -1.27875 0.2475 -1.9375 0.375 C-2.618125 0.58125 -3.29875 0.7875 -4 1 C-4.33 1.66 -4.66 2.32 -5 3 C-5.99 2.01 -6.98 1.02 -8 0 C-4.71023192 -1.09658936 -3.28696233 -0.79953138 0 0 Z M-7 3 C-6.34 3 -5.68 3 -5 3 C-5.33 3.66 -5.66 4.32 -6 5 C-6.33 4.34 -6.66 3.68 -7 3 Z " fill="#54667F" transform="translate(220,314)"/>
<path d="M0 0 C-0.99 0.495 -0.99 0.495 -2 1 C-2 1.66 -2 2.32 -2 3 C-4.31 2.67 -6.62 2.34 -9 2 C-5.96271914 -1.03728086 -4.06215635 -1.35405212 0 0 Z " fill="#E96662" transform="translate(183,218)"/>
<path d="M0 0 C0 0.66 0 1.32 0 2 C-3.44450737 4.29633824 -5.93812283 4.54016485 -10 5 C-8.28489314 1.56978628 -3.75681361 0 0 0 Z " fill="#ED7A7B" transform="translate(306,185)"/>
<path d="M0 0 C2.3129482 2.3129482 2.49580975 3.47904875 3.125 6.625 C3.29257812 7.44226563 3.46015625 8.25953125 3.6328125 9.1015625 C3.81457031 10.04128906 3.81457031 10.04128906 4 11 C3.01 10.67 2.02 10.34 1 10 C0.67 6.7 0.34 3.4 0 0 Z " fill="#E9696E" transform="translate(374,112)"/>
<path d="M0 0 C2.31 0.33 4.62 0.66 7 1 C7 2.32 7 3.64 7 5 C3.535 3.02 3.535 3.02 0 1 C0 0.67 0 0.34 0 0 Z " fill="#ED6D69" transform="translate(348,114)"/>
<path d="M0 0 C0.66 0.33 1.32 0.66 2 1 C2 1.66 2 2.32 2 3 C2.99 3.66 3.98 4.32 5 5 C2.36 5 -0.28 5 -3 5 C-2.01 3.35 -1.02 1.7 0 0 Z " fill="#6C7582" transform="translate(31,85)"/>
<path d="M0 0 C0.66 0 1.32 0 2 0 C2.33 1.65 2.66 3.3 3 5 C1.02 5.99 1.02 5.99 -1 7 C-1.625 5.1875 -1.625 5.1875 -2 3 C-1.34 2.01 -0.68 1.02 0 0 Z " fill="#072445" transform="translate(64,53)"/>
<path d="M0 0 C1.24546405 2.49092811 0.7767578 3.41080733 0 6 C-1.65 6.33 -3.3 6.66 -5 7 C-3.47793991 4.37098712 -2.15634036 2.15634036 0 0 Z " fill="#5C6779" transform="translate(91,47)"/>
<path d="M0 0 C0.66 0 1.32 0 2 0 C1.60196439 2.88575819 1.20990931 3.82189513 -1.0625 5.75 C-1.701875 6.1625 -2.34125 6.575 -3 7 C-2.67 5.35 -2.34 3.7 -2 2 C-1.34 2 -0.68 2 0 2 C0 1.34 0 0.68 0 0 Z " fill="#515F76" transform="translate(76,50)"/>
<path d="M0 0 C0.6875 1.8125 0.6875 1.8125 1 4 C-0.4375 5.75 -0.4375 5.75 -2 7 C-2.99 6.34 -3.98 5.68 -5 5 C-3.35 3.35 -1.7 1.7 0 0 Z " fill="#55687A" transform="translate(128,45)"/>
<path d="M0 0 C0.99 1.32 1.98 2.64 3 4 C0.69 3.67 -1.62 3.34 -4 3 C-4 2.34 -4 1.68 -4 1 C-2.68 0.67 -1.36 0.34 0 0 Z " fill="#F04A49" transform="translate(62,535)"/>
<path d="M0 0 C0 3.51716303 -0.82445585 4.37121748 -3 7 C-4.32 6.67 -5.64 6.34 -7 6 C-4.69 4.02 -2.38 2.04 0 0 Z " fill="#EC847B" transform="translate(218,488)"/>
<path d="M0 0 C1.32 0 2.64 0 4 0 C4 0.66 4 1.32 4 2 C2.02 2.99 0.04 3.98 -2 5 C-1.125 1.125 -1.125 1.125 0 0 Z " fill="#E96E6E" transform="translate(372,89)"/>
<path d="M0 0 C2.97 0.495 2.97 0.495 6 1 C4.3125 2.5625 4.3125 2.5625 2 4 C-0.75 3.6875 -0.75 3.6875 -3 3 C-2.01 2.67 -1.02 2.34 0 2 C0 1.34 0 0.68 0 0 Z " fill="#0F2038" transform="translate(61,74)"/>
<path d="M0 0 C0.66 0.33 1.32 0.66 2 1 C2 1.66 2 2.32 2 3 C2.99 2.67 3.98 2.34 5 2 C4.67 2.99 4.34 3.98 4 5 C1.5625 4.625 1.5625 4.625 -1 4 C-1.33 3.34 -1.66 2.68 -2 2 C-1.34 2 -0.68 2 0 2 C0 1.34 0 0.68 0 0 Z " fill="#48586E" transform="translate(140,70)"/>
<path d="M0 0 C0.66 1.32 1.32 2.64 2 4 C0.68 4.99 -0.64 5.98 -2 7 C-2 3 -2 3 0 0 Z " fill="#586675" transform="translate(70,56)"/>
<path d="M0 0 C1.32 0 2.64 0 4 0 C4.33 1.65 4.66 3.3 5 5 C2.525 4.01 2.525 4.01 0 3 C0 2.01 0 1.02 0 0 Z " fill="#495668" transform="translate(150,51)"/>
<path d="" fill="#FFFFFF" transform="translate(0,0)"/>
<path d="" fill="#FFFFFF" transform="translate(0,0)"/>
<path d="" fill="#FFFFFF" transform="translate(0,0)"/>
<path d="" fill="#FFFFFF" transform="translate(0,0)"/>
<path d="" fill="#FFFFFF" transform="translate(0,0)"/>
<path d="" fill="#FFFFFF" transform="translate(0,0)"/>
<path d="" fill="#FFFFFF" transform="translate(0,0)"/>
<path d="" fill="#FFFFFF" transform="translate(0,0)"/>
<path d="" fill="#FFFFFF" transform="translate(0,0)"/>
<path d="" fill="#FFFFFF" transform="translate(0,0)"/>
<path d="" fill="#FFFFFF" transform="translate(0,0)"/>
<path d="" fill="#FFFFFF" transform="translate(0,0)"/>
<path d="" fill="#FFFFFF" transform="translate(0,0)"/>
<path d="" fill="#FFFFFF" transform="translate(0,0)"/>
<path d="" fill="#FFFFFF" transform="translate(0,0)"/>
<path d="" fill="#FFFFFF" transform="translate(0,0)"/>
<path d="" fill="#FFFFFF" transform="translate(0,0)"/>
<path d="" fill="#FFFFFF" transform="translate(0,0)"/>
<path d="" fill="#FFFFFF" transform="translate(0,0)"/>
<path d="" fill="#FFFFFF" transform="translate(0,0)"/>
<path d="" fill="#FFFFFF" transform="translate(0,0)"/>
<path d="" fill="#FFFFFF" transform="translate(0,0)"/>
<path d="" fill="#FFFFFF" transform="translate(0,0)"/>
<path d="" fill="#FFFFFF" transform="translate(0,0)"/>
<path d="" fill="#FFFFFF" transform="translate(0,0)"/>
<path d="" fill="#FFFFFF" transform="translate(0,0)"/>
<path d="" fill="#FFFFFF" transform="translate(0,0)"/>
<path d="" fill="#FFFFFF" transform="translate(0,0)"/>
<path d="" fill="#FFFFFF" transform="translate(0,0)"/>
<path d="" fill="#FFFFFF" transform="translate(0,0)"/>
<path d="" fill="#FFFFFF" transform="translate(0,0)"/>
<path d="" fill="#FFFFFF" transform="translate(0,0)"/>
<path d="" fill="#FFFFFF" transform="translate(0,0)"/>
<path d="" fill="#FFFFFF" transform="translate(0,0)"/>
<path d="" fill="#FFFFFF" transform="translate(0,0)"/>
<path d="" fill="#FFFFFF" transform="translate(0,0)"/>
<path d="" fill="#FFFFFF" transform="translate(0,0)"/>
<path d="" fill="#FFFFFF" transform="translate(0,0)"/>
<path d="" fill="#FFFFFF" transform="translate(0,0)"/>
<path d="" fill="#FFFFFF" transform="translate(0,0)"/>
<path d="" fill="#FFFFFF" transform="translate(0,0)"/>
<path d="" fill="#FFFFFF" transform="translate(0,0)"/>
<path d="" fill="#FFFFFF" transform="translate(0,0)"/>
<path d="" fill="#FFFFFF" transform="translate(0,0)"/>
<path d="" fill="#FFFFFF" transform="translate(0,0)"/>
<path d="" fill="#FFFFFF" transform="translate(0,0)"/>
<path d="" fill="#FFFFFF" transform="translate(0,0)"/>
<path d="" fill="#FFFFFF" transform="translate(0,0)"/>
<path d="" fill="#FFFFFF" transform="translate(0,0)"/>
<path d="" fill="#FFFFFF" transform="translate(0,0)"/>
<path d="" fill="#FFFFFF" transform="translate(0,0)"/>
<path d="" fill="#FFFFFF" transform="translate(0,0)"/>
<path d="" fill="#FFFFFF" transform="translate(0,0)"/>
<path d="" fill="#FFFFFF" transform="translate(0,0)"/>
<path d="" fill="#FFFFFF" transform="translate(0,0)"/>
<path d="" fill="#FFFFFF" transform="translate(0,0)"/>
<path d="" fill="#FFFFFF" transform="translate(0,0)"/>
<path d="" fill="#FFFFFF" transform="translate(0,0)"/>
<path d="" fill="#FFFFFF" transform="translate(0,0)"/>
<path d="" fill="#FFFFFF" transform="translate(0,0)"/>
<path d="" fill="#FFFFFF" transform="translate(0,0)"/>
</svg>
